<svg width="59" height="59" viewBox="0 0 59 59" fill="none" xmlns="http://www.w3.org/2000/svg">
<circle r="29.5" transform="matrix(-1 0 0 1 29.5 29.5)" fill="#B2CD35"/>
<path d="M12.3056 28.6592C11.6941 29.053 11.6941 29.947 12.3056 30.3408L28.9586 41.0647C29.6241 41.4933 30.5 41.0155 30.5 40.224L30.5 18.776C30.5 17.9845 29.6241 17.5067 28.9586 17.9353L12.3056 28.6592Z" fill="white"/>
<path d="M30 25C29.4477 25 29 25.4477 29 26V33C29 33.5523 29.4477 34 30 34H45C45.5523 34 46 33.5523 46 33V26C46 25.4477 45.5523 25 45 25L30 25Z" fill="white"/>
</svg>
