<svg xmlns="http://www.w3.org/2000/svg" viewBox="0 0 95.73 55.58"><defs><style>.cls-1{fill:#d6deea;}</style></defs><g id="Layer_2" data-name="Layer 2"><g id="Layer_1-2" data-name="Layer 1"><path class="cls-1" d="M92.33,35.92A17.82,17.82,0,0,0,95.72,26C95.9,20,93.15,14.05,89,9.58A30.18,30.18,0,0,0,60,.86,29,29,0,0,0,39.15,22.69c-1.95-6.08-10-8.43-15.95-6.21S12.86,24.36,9.61,30C3.07,30.58-1.16,37.88.28,44.08c1.33,5.73,6.75,10,12.58,10.8S24.67,53.3,29,49.35a26,26,0,0,0,24.41,5.1A26,26,0,0,0,70.51,36.27C73.67,41.46,81,43.22,86.57,40.7A14.7,14.7,0,0,0,92.33,35.92Z"/></g></g></svg>