<svg xmlns="http://www.w3.org/2000/svg" viewBox="0 0 90.21 48.05"><defs><style>.cls-1{fill:#d6deea;}</style></defs><g id="Layer_2" data-name="Layer 2"><g id="Layer_1-2" data-name="Layer 1"><path class="cls-1" d="M15.45,38.45a12.8,12.8,0,0,0,5.95,8.13c6.41,3.59,15.63.31,18.35-6.51C44.5,44.49,51,47.6,57.39,46.64s12.21-7,11.35-13.4c7.83,4.11,18.89-.82,21.08-9.39C92.19,14.57,83.37,4,73.58,5.67,64.4-.5,50.45,1.26,43.44,10,39.68,2.34,30.09-1.22,21.75.38S6.39,7.84,1.51,14.78A7.13,7.13,0,0,0,0,17.87c-.32,2.32,1.46,4.4,3.35,5.78a20.64,20.64,0,0,0,14,3.89A13,13,0,0,0,15.45,38.45Z"/></g></g></svg>