<svg width="59" height="59" viewBox="0 0 59 59" fill="none" xmlns="http://www.w3.org/2000/svg">
<circle cx="29.5" cy="29.5" r="29.5" fill="#E1E1E1"/>
<path d="M27.6737 37.2122C29.3741 38.5757 29.6473 41.0595 28.2838 42.7599C26.9203 44.4603 24.4366 44.7335 22.7361 43.37L13.0789 35.6266C11.3785 34.2631 11.1053 31.7793 12.4688 30.0789C13.8322 28.3785 16.316 28.1053 18.0164 29.4688L27.6737 37.2122Z" fill="white"/>
<path d="M28.5645 43.1499C27.1471 44.8444 24.6244 45.069 22.9299 43.6515L21.9185 42.8055C20.2241 41.3881 19.9995 38.8654 21.4169 37.1709L40.286 14.6139C41.7034 12.9194 44.2261 12.6948 45.9205 14.1122L46.9319 14.9583C48.6264 16.3757 48.851 18.8984 47.4336 20.5929L28.5645 43.1499Z" fill="white"/>
</svg>
