<svg xmlns="http://www.w3.org/2000/svg" viewBox="0 0 188.53 48.49"><defs><style>.cls-1{fill:#231f20;}.cls-2{fill:#ffde17;}.cls-3{fill:none;stroke:#231f20;stroke-miterlimit:10;}.cls-4{fill:#3262ae;}</style></defs><g id="Layer_2" data-name="Layer 2"><g id="Layer_1-2" data-name="Layer 1"><path class="cls-1" d="M32.17,0s-.44.9,0,1.13,2.35,1.81,2.35,1.81l21.15-.79a9.38,9.38,0,0,0,2.87-.68v-1Z"/><path class="cls-1" d="M26.37,0s.44.9,0,1.13S24,2.94,24,2.94L2.86,2.15A9.33,9.33,0,0,1,0,1.47v-1Z"/><path class="cls-2" d="M27.82,1.81V4.87h-2v2.9h7.05V5H30.61V1.81S29.35-.34,27.82,1.81Z"/><path class="cls-1" d="M162.55,0s-.44.9,0,1.13,2.31,1.81,2.31,1.81l20.85-.79a9.08,9.08,0,0,0,2.82-.68v-1Z"/><path class="cls-1" d="M156.83,0s.43.9,0,1.13-2.32,1.81-2.32,1.81l-20.85-.79a9.08,9.08,0,0,1-2.82-.68v-1Z"/><path class="cls-2" d="M158.26,1.81V4.87h-2v2.9h6.94V5H161V1.81S159.77-.34,158.26,1.81Z"/><path class="cls-3" d="M111.49,11.63c-1.18.06-10.21-9.69-19.06-9.69s-17.81,9.69-19.06,9.69H26.16c-2.89,0-4,2.39-3.7,4.63a36.2,36.2,0,0,0,1,4.47h5.4l4-5,40.42,5c2.65,5.72,10.21,9.86,19.15,9.86s16.51-4.14,19.15-9.86l42.43-4,6,5h4.39l1-5.47s1-4.63-2.64-4.63C159.4,11.63,112.68,11.57,111.49,11.63Z"/><path class="cls-1" d="M73.55,35.8V47.55h1.77L76.5,37.07l4-6.54a19.73,19.73,0,0,1-3.85-2.66Z"/><path class="cls-1" d="M103.25,31.2,107.36,38l1.18,10.48h1.77V36.73l-3-7.88A22,22,0,0,1,103.25,31.2Z"/><path class="cls-4" d="M74.31,12.54h36S99.33,3,92.47,3,74.31,12.54,74.31,12.54Z"/></g></g></svg>