<svg xmlns="http://www.w3.org/2000/svg" viewBox="0 0 147.92 47.05"><defs><style>.cls-1{fill:#231f20;}.cls-2{fill:#ffc80f;}.cls-3{fill:none;stroke:#231f20;stroke-miterlimit:10;}.cls-4{fill:#4468b2;}</style></defs><g id="Layer_2" data-name="Layer 2"><g id="Layer_1-2" data-name="Layer 1"><path class="cls-1" d="M25.23,2.44s-.35.71,0,.89,1.84,1.41,1.84,1.41l16.59-.62a7.06,7.06,0,0,0,2.24-.53v-.8Z"/><path class="cls-1" d="M20.67,2.44s.35.71,0,.89-1.84,1.41-1.84,1.41L2.25,4.12A7.11,7.11,0,0,1,0,3.59v-.8Z"/><path class="cls-2" d="M21.82,3.86v2.4H20.23V8.53h5.53V6.33H24V3.86A1.19,1.19,0,0,0,21.82,3.86Z"/><path class="cls-1" d="M127.38,2.08s-.34.71,0,.89,1.83,1.43,1.83,1.43l16.48-.62a7.09,7.09,0,0,0,2.23-.54V2.43Z"/><path class="cls-1" d="M122.86,2.08s.34.71,0,.89S121,4.4,121,4.4l-16.48-.62a7.09,7.09,0,0,1-2.23-.54V2.43Z"/><path class="cls-2" d="M124,3.51V5.93h-1.57V8.22h5.49V6h-1.75V3.51A1.17,1.17,0,0,0,124,3.51Z"/><path class="cls-3" d="M93.93,10.18C92.75,10.24,83.72.5,74.87.5s-17.81,9.68-19.06,9.68H20.6c-2.89,0-4,2.39-3.7,4.64a36.2,36.2,0,0,0,1,4.47h5.39l4-5,28.43,5c2.64,5.72,10.21,9.85,19.15,9.85S91.37,25,94,19.28l25.42-4,6,5h4.4l1-5.47s1-4.64-2.64-4.64C124.84,10.18,95.11,10.13,93.93,10.18Z"/><path class="cls-1" d="M56,34.35V46.11h1.77l1.18-10.48,4-6.55A19.69,19.69,0,0,1,59,26.43Z"/><path class="cls-1" d="M85.69,29.75l4.11,6.81L91,47.05h1.77V35.29l-3-7.89A20.88,20.88,0,0,1,85.69,29.75Z"/><path class="cls-4" d="M56.75,11.09h36s-11-9.53-17.85-9.53S56.75,11.09,56.75,11.09Z"/></g></g></svg>