<svg xmlns="http://www.w3.org/2000/svg" viewBox="0 0 1231.01 200.84"><defs><style>.cls-1{fill:#231f20;}.cls-2{fill:#b2cd35;}</style></defs><g id="Layer_2" data-name="Layer 2"><g id="Layer_1-2" data-name="Layer 1"><rect class="cls-1" y="190.42" width="1221.63" height="10.42"/><path class="cls-2" d="M1128.8,188.17c-18.83-23.89-45.5-40.45-74.12-46a172.16,172.16,0,0,1,69.49,11.77,188.73,188.73,0,0,1-13.43-84.64A300,300,0,0,0,1147,124.09c2.39-42.9,16.87-84.93,41-119.12,2.87,0,4.55,3.89,3.83,6.9s-2.89,5.29-4.64,7.75c-7.17,10.09-7.6,23.8-7.54,36.52q.24,46.43,3.87,92.75l43-16.79c-23.11,11-39.57,36.64-40.89,63.83l-58-4"/><path class="cls-1" d="M1132,184.71c-20-24.53-46.42-41-76.12-47.26l-1.21,9.59A177.76,177.76,0,0,1,1123,158.63c4.17,1.57,6.5-3.67,5.12-7.18a190.92,190.92,0,0,1-12.83-82.17l-8.44,2.46a325.45,325.45,0,0,0,37,55.8c2.8,3.41,7.47.46,7.73-3.45A230.82,230.82,0,0,1,1191.92,7.44l-5.12,2.24c1.79.81-4.72,9.22-5.46,10.61a47.34,47.34,0,0,0-4.28,11.58c-2.42,10.37-2,21.42-1.86,32,.32,28.38,1.64,56.72,3.8,85,.23,2.9,2.75,5.88,5.74,4.71l43-16.79-3.49-8.93c-24.94,12.71-41,38.53-43.13,68.05l4.53-4.89-58-4c-5.82-.41-5.8,9.36,0,9.77l58,4c2.58.18,4.34-2.39,4.53-4.88,1.94-26.23,16.7-48.43,38.64-59.61,4.6-2.35,1.35-10.82-3.49-8.93l-43,16.79,5.73,4.71c-2.49-32.66-4.52-65.74-3.83-98.53.14-6.55.5-13.27,2.54-19.51s7.19-10.42,9-16.52c2-6.79-.87-11.51-6.54-14.07-2-.89-4,.66-5.11,2.25-24.59,35.56-38.75,77.36-41.65,121.58l7.73-3.46a314.11,314.11,0,0,1-35.53-53.82c-2.33-4.43-8.17-2.17-8.44,2.47a201.76,201.76,0,0,0,14,87.1l5.12-7.17a185,185,0,0,0-70.7-11.94c-4.9.13-6.39,8.49-1.2,9.59,28.33,6,53.08,21.36,72.12,44.76,3.85,4.74,10.24-2.19,6.41-6.91Z"/></g></g></svg>