<svg width="62" height="62" viewBox="0 0 62 62" fill="none" xmlns="http://www.w3.org/2000/svg">
<circle cx="30.8378" cy="30.8378" r="30.8378" fill="#B2CD35"/>
<path d="M27.896 35.4878C27.896 33.7104 28.1118 32.2949 28.5435 31.2412C28.9751 30.1875 29.7622 29.1528 30.9048 28.1372C32.0601 27.1089 32.8281 26.2773 33.209 25.6426C33.5898 24.9951 33.7803 24.3159 33.7803 23.605C33.7803 21.4595 32.79 20.3867 30.8096 20.3867C29.8701 20.3867 29.1147 20.6787 28.5435 21.2627C27.9849 21.834 27.6929 22.6274 27.6675 23.6431H22.145C22.1704 21.2183 22.9512 19.3203 24.4873 17.9492C26.0361 16.5781 28.1436 15.8926 30.8096 15.8926C33.501 15.8926 35.5894 16.5464 37.0747 17.854C38.5601 19.1489 39.3027 20.9834 39.3027 23.3574C39.3027 24.4365 39.0615 25.4585 38.5791 26.4233C38.0967 27.3755 37.2524 28.4355 36.0464 29.6035L34.5039 31.0698C33.5391 31.9966 32.9868 33.082 32.8472 34.3262L32.771 35.4878H27.896ZM27.3438 41.334C27.3438 40.4834 27.6294 39.7852 28.2007 39.2393C28.7847 38.6807 29.5273 38.4014 30.4287 38.4014C31.3301 38.4014 32.0664 38.6807 32.6377 39.2393C33.2217 39.7852 33.5137 40.4834 33.5137 41.334C33.5137 42.1719 33.228 42.8638 32.6567 43.4097C32.0981 43.9556 31.3555 44.2285 30.4287 44.2285C29.502 44.2285 28.7529 43.9556 28.1816 43.4097C27.623 42.8638 27.3438 42.1719 27.3438 41.334Z" fill="white"/>
</svg>
