<svg width="59" height="59" viewBox="0 0 59 59" fill="none" xmlns="http://www.w3.org/2000/svg">
<circle cx="29.5" cy="29.5" r="29.5" fill="#B2CD35"/>
<path d="M46.6944 28.6592C47.3059 29.053 47.3059 29.947 46.6944 30.3408L30.0414 41.0647C29.3759 41.4933 28.5 41.0155 28.5 40.224L28.5 18.776C28.5 17.9845 29.3759 17.5067 30.0414 17.9353L46.6944 28.6592Z" fill="white"/>
<path d="M29 25C29.5523 25 30 25.4477 30 26V33C30 33.5523 29.5523 34 29 34H14C13.4477 34 13 33.5523 13 33V26C13 25.4477 13.4477 25 14 25L29 25Z" fill="white"/>
</svg>
