<svg xmlns="http://www.w3.org/2000/svg" viewBox="0 0 237.02 196.77"><defs><style>.cls-1,.cls-12,.cls-2{fill:#fff;}.cls-1{stroke:#ffde17;}.cls-1,.cls-2,.cls-4{stroke-miterlimit:10;}.cls-2{stroke:#3262ae;}.cls-3{fill:#6d6e71;}.cls-4{fill:none;stroke:#58595b;stroke-width:0.75px;}.cls-5{fill:#808285;}.cls-6{fill:#606161;}.cls-7{fill:#f1f2f2;}.cls-8{fill:#739bc6;}.cls-9{fill:#fbdb3b;}.cls-10{fill:#58595b;}.cls-11{fill:#b2cc35;}.cls-13{fill:#e1e2e1;}</style></defs><g id="Layer_2" data-name="Layer 2"><g id="Layer_1-2" data-name="Layer 1"><rect class="cls-1" x="106.3" y="124.67" width="71.6" height="71.6" rx="9"/><rect class="cls-1" x="30.27" y="105.59" width="71.6" height="71.6" rx="9"/><rect class="cls-2" x="89.3" y="59.01" width="71.6" height="71.6" rx="9"/><rect class="cls-1" x="164.91" y="92.11" width="71.6" height="71.6" rx="9"/><path class="cls-3" d="M25,0s-.34.7,0,.88,1.83,1.4,1.83,1.4L43.3,1.67a7.19,7.19,0,0,0,2.22-.53V.35Z"/><path class="cls-3" d="M20.5,0s.35.7,0,.88-1.82,1.4-1.82,1.4L2.23,1.67A7.3,7.3,0,0,1,0,1.14V.35Z"/><path class="cls-3" d="M21.64,1.41V3.79H20.07V6h5.47V3.86H23.8V1.41A1.17,1.17,0,0,0,21.64,1.41Z"/><path class="cls-3" d="M126.42,0s-.34.7,0,.88,1.8,1.4,1.8,1.4l16.21-.61a7.16,7.16,0,0,0,2.2-.53V.35Z"/><path class="cls-3" d="M122,0s.33.7,0,.88-1.8,1.4-1.8,1.4L104,1.67a7.05,7.05,0,0,1-2.19-.53V.35Z"/><path class="cls-3" d="M123.08,1.41V3.79h-1.55V6h5.4V3.86h-1.71V1.41A1.16,1.16,0,0,0,123.08,1.41Z"/><path class="cls-4" d="M71.89,24.17c-6.85,0-12.9-3.08-15.16-7.69l-31-3.84-3.09,3.87H18l-.09-.27a29.8,29.8,0,0,1-.79-3.54,3.7,3.7,0,0,1,.77-3,3.16,3.16,0,0,1,2.49-1.06H57.06a12.44,12.44,0,0,0,1.77-1.29c2.77-2.18,7.92-6.24,13.06-6.24S82.18,5.19,85,7.37a12.54,12.54,0,0,0,1.77,1.28c1,0,18.37,0,35.26,0h4.6a2.32,2.32,0,0,1,1.92.83,4.4,4.4,0,0,1,.52,3.25l-.84,4.56H124.3l-4.65-3.88L87,16.48C84.77,21.09,78.72,24.17,71.89,24.17Z"/><path class="cls-3" d="M57.2,27.84V37h1.38l.92-8.15,3.07-5.09a15.18,15.18,0,0,1-3-2.07Z"/><path class="cls-3" d="M80.3,24.26l3.2,5.3.91,8.15h1.38V28.57l-2.36-6.13A16.46,16.46,0,0,1,80.3,24.26Z"/><path class="cls-5" d="M57.79,9.75h28S77.25,2.34,71.91,2.34,57.79,9.75,57.79,9.75Z"/><path class="cls-6" d="M100.29,68.86h1.06v.77h-1.06v1.19h-.8V69.63H98.43v-.77h1.06V67.72h.8Z"/><path class="cls-6" d="M107.06,69.83a1.47,1.47,0,0,1-.51,1.08,1.77,1.77,0,0,1-1.21.4,1.63,1.63,0,0,1-1.29-.55,2.3,2.3,0,0,1-.47-1.52V69a2.45,2.45,0,0,1,.22-1.08,1.52,1.52,0,0,1,.62-.72,1.71,1.71,0,0,1,.93-.25,1.74,1.74,0,0,1,1.19.39,1.58,1.58,0,0,1,.52,1.11h-.87a1,1,0,0,0-.23-.6.91.91,0,0,0-.61-.18.73.73,0,0,0-.65.31,1.79,1.79,0,0,0-.23,1v.32a1.88,1.88,0,0,0,.21,1,.74.74,0,0,0,.66.32.73.73,0,0,0,.84-.76Z"/><path class="cls-6" d="M109.36,69.69h-.7v1.56h-.87V67h1.58a1.85,1.85,0,0,1,1.17.34,1.18,1.18,0,0,1,.41,1,1.36,1.36,0,0,1-.19.73,1.31,1.31,0,0,1-.58.47l.93,1.74v0h-1Zm-.7-.71h.71a.77.77,0,0,0,.52-.17.61.61,0,0,0,.18-.47.64.64,0,0,0-.17-.47.71.71,0,0,0-.53-.17h-.71Z"/><path class="cls-6" d="M114.33,69.4h-1.69v1.14h2v.71h-2.86V67h2.86v.72h-2v1h1.69Z"/><path class="cls-6" d="M117.7,70.37h-1.54l-.3.88h-.93L116.52,67h.81l1.6,4.27H118Zm-1.31-.71h1.07l-.54-1.6Z"/><path class="cls-6" d="M122.34,67.7H121v3.55h-.88V67.7h-1.29V67h3.48Z"/><path class="cls-6" d="M125.55,69.4h-1.68v1.14h2v.71H123V67h2.85v.72h-2v1h1.68Z"/><path class="cls-6" d="M131.63,71.25h-.88L129,68.44v2.81h-.88V67H129l1.71,2.82V67h.88Z"/><path class="cls-6" d="M135.11,69.4h-1.69v1.14h2v.71h-2.86V67h2.86v.72h-2v1h1.69Z"/><path class="cls-6" d="M139.39,70l.57-3h.88l-1,4.27H139l-.7-2.85-.69,2.85h-.88l-1-4.27h.88l.57,3,.71-3h.74Z"/><path class="cls-3" d="M100.74,82.48a.47.47,0,0,0-.16-.37,2,2,0,0,0-.6-.25,2.76,2.76,0,0,1-.68-.29.9.9,0,0,1-.49-.8.86.86,0,0,1,.35-.7,1.39,1.39,0,0,1,.91-.28,1.53,1.53,0,0,1,.66.13,1.18,1.18,0,0,1,.46.39,1,1,0,0,1,.16.56h-.61a.56.56,0,0,0-.17-.43.89.89,0,0,0-1,0,.42.42,0,0,0-.17.36.4.4,0,0,0,.18.33,2.23,2.23,0,0,0,.6.25,3,3,0,0,1,.66.28,1.16,1.16,0,0,1,.37.36,1,1,0,0,1,.12.48.87.87,0,0,1-.34.71,1.53,1.53,0,0,1-.93.26,1.87,1.87,0,0,1-.71-.14,1.25,1.25,0,0,1-.5-.4,1,1,0,0,1-.18-.58h.62a.59.59,0,0,0,.2.47.86.86,0,0,0,.57.16.75.75,0,0,0,.49-.13A.41.41,0,0,0,100.74,82.48Z"/><path class="cls-3" d="M103.57,83.13a.91.91,0,0,1-.74.31.83.83,0,0,1-.66-.25,1.12,1.12,0,0,1-.22-.73V80.75h.6v1.7c0,.34.14.51.41.51a.6.6,0,0,0,.59-.31v-1.9h.59v2.64h-.56Z"/><path class="cls-3" d="M107.18,82.1a1.57,1.57,0,0,1-.27,1,.89.89,0,0,1-.75.37.92.92,0,0,1-.7-.29v1.26h-.59V80.75h.55l0,.27a.87.87,0,0,1,.71-.32.9.9,0,0,1,.76.36,1.63,1.63,0,0,1,.27,1Zm-.59,0a1.13,1.13,0,0,0-.15-.63.52.52,0,0,0-.46-.23.55.55,0,0,0-.52.3v1.17A.57.57,0,0,0,106,83a.5.5,0,0,0,.44-.23A1.17,1.17,0,0,0,106.59,82.05Z"/><path class="cls-3" d="M109,83.44a1.21,1.21,0,0,1-.91-.36,1.28,1.28,0,0,1-.35-.94v-.07a1.61,1.61,0,0,1,.15-.71,1.21,1.21,0,0,1,.43-.49,1.17,1.17,0,0,1,.61-.17,1.06,1.06,0,0,1,.84.35,1.46,1.46,0,0,1,.29,1v.24h-1.72a.76.76,0,0,0,.22.52A.66.66,0,0,0,109,83a.8.8,0,0,0,.66-.33l.32.3a1.08,1.08,0,0,1-.42.37A1.32,1.32,0,0,1,109,83.44Zm-.07-2.26a.48.48,0,0,0-.39.17.81.81,0,0,0-.19.47h1.13v0a.77.77,0,0,0-.16-.45A.5.5,0,0,0,108.9,81.18Z"/><path class="cls-3" d="M112,81.29l-.24,0a.55.55,0,0,0-.55.31v1.81h-.59V80.75h.56l0,.3a.67.67,0,0,1,.59-.35.58.58,0,0,1,.21,0Z"/><path class="cls-3" d="M114.81,82.1a1.57,1.57,0,0,1-.27,1,.89.89,0,0,1-.75.37.92.92,0,0,1-.7-.29v1.26h-.59V80.75h.55l0,.27a.88.88,0,0,1,.71-.32.9.9,0,0,1,.76.36,1.63,1.63,0,0,1,.27,1Zm-.59,0a1.13,1.13,0,0,0-.15-.63.51.51,0,0,0-.45-.23.55.55,0,0,0-.53.3v1.17a.57.57,0,0,0,.53.31.5.5,0,0,0,.44-.23A1.17,1.17,0,0,0,114.22,82.05Z"/><path class="cls-3" d="M115.33,82.05a1.57,1.57,0,0,1,.15-.7,1.14,1.14,0,0,1,.44-.48,1.19,1.19,0,0,1,.63-.17,1.15,1.15,0,0,1,.87.35,1.26,1.26,0,0,1,.36.91v.14a1.6,1.6,0,0,1-.15.7,1.15,1.15,0,0,1-.43.47,1.29,1.29,0,0,1-.65.17,1.13,1.13,0,0,1-.89-.37,1.41,1.41,0,0,1-.34-1Zm.59,0a1.1,1.1,0,0,0,.17.64.56.56,0,0,0,.47.23.54.54,0,0,0,.47-.24,1.15,1.15,0,0,0,.17-.68,1,1,0,0,0-.18-.64.53.53,0,0,0-.47-.23.54.54,0,0,0-.46.23A1.17,1.17,0,0,0,115.92,82.1Z"/><path class="cls-3" d="M120.73,82.57l.42-1.82h.58L121,83.39h-.49L120,81.58l-.56,1.81h-.49l-.72-2.64h.58l.42,1.8.55-1.8h.44Z"/><path class="cls-3" d="M123.42,83.44a1.24,1.24,0,0,1-.92-.36,1.28,1.28,0,0,1-.35-.94v-.07a1.61,1.61,0,0,1,.15-.71,1.29,1.29,0,0,1,.43-.49,1.2,1.2,0,0,1,.62-.17,1,1,0,0,1,.83.35,1.41,1.41,0,0,1,.3,1v.24h-1.73a.8.8,0,0,0,.22.52.69.69,0,0,0,.48.19.83.83,0,0,0,.67-.33l.31.3a1,1,0,0,1-.42.37A1.28,1.28,0,0,1,123.42,83.44Zm-.07-2.26a.48.48,0,0,0-.4.17.88.88,0,0,0-.19.47h1.13v0a.71.71,0,0,0-.16-.45A.49.49,0,0,0,123.35,81.18Z"/><path class="cls-3" d="M126.45,81.29l-.25,0a.56.56,0,0,0-.55.31v1.81h-.59V80.75h.57v.3a.68.68,0,0,1,.6-.35.66.66,0,0,1,.21,0Z"/><path class="cls-3" d="M131.19,83.39h-.62L129,80.87v2.52h-.62V79.84H129l1.59,2.53V79.84h.61Z"/><path class="cls-3" d="M133.57,83.39a.77.77,0,0,1-.07-.24.94.94,0,0,1-.69.29.92.92,0,0,1-.65-.23.72.72,0,0,1-.25-.56.75.75,0,0,1,.31-.65,1.54,1.54,0,0,1,.9-.22h.36V81.6a.48.48,0,0,0-.11-.32.45.45,0,0,0-.35-.13.6.6,0,0,0-.34.1.35.35,0,0,0-.13.26H132a.62.62,0,0,1,.15-.4.85.85,0,0,1,.39-.3,1.38,1.38,0,0,1,.55-.11,1.13,1.13,0,0,1,.74.23.84.84,0,0,1,.28.66v1.19a1.46,1.46,0,0,0,.1.57v0Zm-.65-.43a.67.67,0,0,0,.33-.08.63.63,0,0,0,.23-.23v-.5h-.32a.88.88,0,0,0-.5.12.39.39,0,0,0,0,.59A.45.45,0,0,0,132.92,83Z"/><path class="cls-3" d="M135.38,80.75V81a1,1,0,0,1,.77-.33.73.73,0,0,1,.72.41.94.94,0,0,1,.81-.41.82.82,0,0,1,.65.24,1,1,0,0,1,.22.71v1.74H138V81.67a.54.54,0,0,0-.11-.37.53.53,0,0,0-.37-.11.47.47,0,0,0-.33.11.62.62,0,0,0-.18.28v1.81h-.6V81.65a.42.42,0,0,0-.47-.46.52.52,0,0,0-.51.29v1.91h-.59V80.75Z"/><path class="cls-3" d="M140.46,83.44a1.24,1.24,0,0,1-.92-.36,1.28,1.28,0,0,1-.35-.94v-.07a1.61,1.61,0,0,1,.16-.71,1.19,1.19,0,0,1,.42-.49,1.2,1.2,0,0,1,.62-.17,1,1,0,0,1,.83.35,1.41,1.41,0,0,1,.3,1v.24h-1.73a.8.8,0,0,0,.22.52.69.69,0,0,0,.48.19.82.82,0,0,0,.67-.33l.32.3a1.11,1.11,0,0,1-.43.37A1.25,1.25,0,0,1,140.46,83.44Zm-.07-2.26a.48.48,0,0,0-.4.17.88.88,0,0,0-.19.47h1.13v0a.66.66,0,0,0-.16-.45A.49.49,0,0,0,140.39,81.18Z"/><path class="cls-3" d="M175.2,102.16l.75-1.28h.71l-1.07,1.76,1.1,1.79H176l-.77-1.3-.76,1.3h-.72l1.1-1.79-1.08-1.76h.72Z"/><path class="cls-3" d="M178,103.16H176.7v-.48H178Z"/><path class="cls-3" d="M181.33,103.06h-.69v1.37H180v-3.55h1.25a1.47,1.47,0,0,1,.95.27,1.1,1.1,0,0,1,.16,1.4,1.1,1.1,0,0,1-.47.37l.79,1.48v0H182Zm-.69-.49h.63a.72.72,0,0,0,.49-.16.55.55,0,0,0,.18-.43.65.65,0,0,0-.16-.45.75.75,0,0,0-.49-.16h-.65Z"/><path class="cls-3" d="M184.79,104.43a.77.77,0,0,1-.07-.25.92.92,0,0,1-.69.3.94.94,0,0,1-.65-.23.72.72,0,0,1-.25-.56.75.75,0,0,1,.31-.65,1.54,1.54,0,0,1,.9-.22h.36v-.18a.48.48,0,0,0-.11-.32.45.45,0,0,0-.35-.13.6.6,0,0,0-.34.1.34.34,0,0,0-.12.26h-.6a.67.67,0,0,1,.15-.41.91.91,0,0,1,.39-.29,1.38,1.38,0,0,1,.55-.11,1.13,1.13,0,0,1,.74.23.84.84,0,0,1,.28.66v1.19a1.46,1.46,0,0,0,.1.57v0Zm-.65-.43a.8.8,0,0,0,.33-.08.63.63,0,0,0,.23-.23v-.5h-.32a.88.88,0,0,0-.5.12.35.35,0,0,0-.16.32.37.37,0,0,0,.11.27A.45.45,0,0,0,184.14,104Z"/><path class="cls-3" d="M186.93,103.58l.54-1.79h.63l-1,3a.87.87,0,0,1-.82.67,1.1,1.1,0,0,1-.29,0V105h.11a.61.61,0,0,0,.34-.08.53.53,0,0,0,.18-.28l.09-.22-.93-2.63h.64Z"/><path class="cls-3" d="M191.24,103.66l.91-2.78h.68l-1.28,3.55H191l-1.28-3.55h.68Z"/><path class="cls-3" d="M193.29,101.1a.29.29,0,0,1,.09-.22.39.39,0,0,1,.5,0,.29.29,0,0,1,.09.22.32.32,0,0,1-.09.23.43.43,0,0,1-.5,0A.32.32,0,0,1,193.29,101.1Zm.63,3.33h-.59v-2.64h.59Z"/><path class="cls-3" d="M196.18,103.71a.29.29,0,0,0-.13-.24,2,2,0,0,0-.44-.15,1.84,1.84,0,0,1-.5-.16.67.67,0,0,1-.45-.62A.7.7,0,0,1,195,102a1.16,1.16,0,0,1,.73-.23,1.24,1.24,0,0,1,.77.23.76.76,0,0,1,.29.61h-.59a.37.37,0,0,0-.13-.28.47.47,0,0,0-.34-.12.55.55,0,0,0-.32.09.3.3,0,0,0-.12.25.24.24,0,0,0,.12.21,1.5,1.5,0,0,0,.46.15,2.21,2.21,0,0,1,.55.18.83.83,0,0,1,.29.26.61.61,0,0,1,.1.36.69.69,0,0,1-.3.58,1.21,1.21,0,0,1-.77.22,1.34,1.34,0,0,1-.58-.12.89.89,0,0,1-.39-.32.72.72,0,0,1-.14-.44h.57a.4.4,0,0,0,.16.32.6.6,0,0,0,.39.11.59.59,0,0,0,.35-.08A.27.27,0,0,0,196.18,103.71Z"/><path class="cls-3" d="M197.4,101.1a.29.29,0,0,1,.09-.22.33.33,0,0,1,.25-.09.35.35,0,0,1,.25.09.33.33,0,0,1,.08.22.36.36,0,0,1-.08.23.34.34,0,0,1-.25.08.33.33,0,0,1-.25-.08A.32.32,0,0,1,197.4,101.1Zm.63,3.33h-.59v-2.64H198Z"/><path class="cls-3" d="M198.69,103.08a1.43,1.43,0,0,1,.16-.69,1.06,1.06,0,0,1,.43-.48,1.22,1.22,0,0,1,.64-.17,1.18,1.18,0,0,1,.87.34,1.39,1.39,0,0,1,.36.92v.14a1.52,1.52,0,0,1-.15.69,1.06,1.06,0,0,1-.43.48,1.26,1.26,0,0,1-.65.17,1.13,1.13,0,0,1-.89-.37,1.41,1.41,0,0,1-.34-1Zm.6.06a1,1,0,0,0,.16.63.55.55,0,0,0,.47.24.54.54,0,0,0,.47-.24,1.19,1.19,0,0,0,.17-.69,1,1,0,0,0-.18-.63.53.53,0,0,0-.46-.23.52.52,0,0,0-.46.23A1.1,1.1,0,0,0,199.29,103.14Z"/><path class="cls-3" d="M202.33,101.79v.3a1,1,0,0,1,.77-.35c.55,0,.83.32.84.94v1.75h-.59v-1.71a.54.54,0,0,0-.11-.37.45.45,0,0,0-.35-.12.57.57,0,0,0-.54.32v1.88h-.59v-2.64Z"/><path class="cls-3" d="M40,119.85H38.6l-.29.83h-.64L39,117.13h.56l1.34,3.55h-.64Zm-1.21-.5h1l-.51-1.47Z"/><path class="cls-3" d="M43.7,119.39a1.63,1.63,0,0,1-.27,1,.92.92,0,0,1-.76.36.86.86,0,0,1-.72-.33l0,.28h-.54v-3.75H42v1.36a1,1,0,0,1,1.45.06,1.57,1.57,0,0,1,.28,1Zm-.59-.06a1.12,1.12,0,0,0-.15-.64.52.52,0,0,0-.44-.21.57.57,0,0,0-.55.33v1.09a.57.57,0,0,0,.55.35A.49.49,0,0,0,43,120a1.16,1.16,0,0,0,.16-.63Z"/><path class="cls-3" d="M44.32,117.35a.29.29,0,0,1,.09-.22.33.33,0,0,1,.25-.09.35.35,0,0,1,.25.09.29.29,0,0,1,.08.22.31.31,0,0,1-.08.23.34.34,0,0,1-.25.08.33.33,0,0,1-.25-.08A.32.32,0,0,1,44.32,117.35Zm.63,3.33h-.59V118H45Z"/><path class="cls-3" d="M46.36,120.68h-.6v-3.75h.6Z"/><path class="cls-3" d="M47.13,117.35a.35.35,0,0,1,.58-.22.29.29,0,0,1,.09.22.32.32,0,0,1-.09.23.43.43,0,0,1-.5,0A.36.36,0,0,1,47.13,117.35Zm.63,3.33h-.6V118h.6Z"/><path class="cls-3" d="M49.27,117.4V118h.47v.44h-.47V120a.32.32,0,0,0,.06.22.26.26,0,0,0,.22.07l.2,0v.46a1.32,1.32,0,0,1-.39.06c-.45,0-.68-.25-.68-.75v-1.5h-.44V118h.44v-.64Z"/><path class="cls-3" d="M51.24,119.83l.54-1.79h.63l-1,3a.87.87,0,0,1-.82.67,1.1,1.1,0,0,1-.29,0v-.46h.12a.57.57,0,0,0,.33-.08.53.53,0,0,0,.18-.28l.09-.22L50,118h.64Z"/><path class="cls-3" d="M56.72,117.62h-1.1v3.06H55v-3.06H53.9v-.49h2.82Z"/><path class="cls-3" d="M56.64,119.33a1.55,1.55,0,0,1,.15-.69,1.12,1.12,0,0,1,.43-.48,1.25,1.25,0,0,1,.64-.17,1.15,1.15,0,0,1,.87.34,1.39,1.39,0,0,1,.36.92v.14a1.52,1.52,0,0,1-.15.69,1.06,1.06,0,0,1-.43.48,1.22,1.22,0,0,1-.64.17,1.16,1.16,0,0,1-.9-.37,1.45,1.45,0,0,1-.33-1Zm.59.06a1,1,0,0,0,.17.63.54.54,0,0,0,.47.24.55.55,0,0,0,.47-.24,1.19,1.19,0,0,0,.16-.69,1,1,0,0,0-.17-.63.53.53,0,0,0-.47-.23.54.54,0,0,0-.46.23A1.17,1.17,0,0,0,57.23,119.39Z"/><path class="cls-3" d="M39.29,125.31H38.6v1.37H38v-3.55h1.25a1.49,1.49,0,0,1,.95.27,1,1,0,0,1,.33.8,1,1,0,0,1-.17.6,1.13,1.13,0,0,1-.48.37l.8,1.48v0H40Zm-.69-.49h.64a.74.74,0,0,0,.49-.16.58.58,0,0,0,.17-.43.61.61,0,0,0-.16-.45.74.74,0,0,0-.48-.16H38.6Z"/><path class="cls-3" d="M42.34,126.73a1.24,1.24,0,0,1-.92-.36,1.28,1.28,0,0,1-.35-.94v-.08a1.6,1.6,0,0,1,.16-.7,1.19,1.19,0,0,1,.42-.49,1.2,1.2,0,0,1,.62-.17,1,1,0,0,1,.83.34,1.45,1.45,0,0,1,.3,1v.24H41.67a.8.8,0,0,0,.22.52.69.69,0,0,0,.48.19.82.82,0,0,0,.67-.33l.32.3a1.11,1.11,0,0,1-.43.37A1.25,1.25,0,0,1,42.34,126.73Zm-.07-2.26a.48.48,0,0,0-.4.17.88.88,0,0,0-.19.47h1.13v0a.66.66,0,0,0-.16-.45A.49.49,0,0,0,42.27,124.47Z"/><path class="cls-3" d="M45.56,126.68a1.15,1.15,0,0,1-.07-.25.92.92,0,0,1-.69.3,1,1,0,0,1-.65-.23.72.72,0,0,1-.25-.56.75.75,0,0,1,.31-.65,1.54,1.54,0,0,1,.9-.22h.36v-.18a.42.42,0,0,0-.46-.45.56.56,0,0,0-.33.1.32.32,0,0,0-.13.26H44a.66.66,0,0,1,.14-.41,1.05,1.05,0,0,1,.39-.29,1.43,1.43,0,0,1,.56-.11,1.12,1.12,0,0,1,.73.23.85.85,0,0,1,.29.66v1.19a1.29,1.29,0,0,0,.1.57v0Zm-.65-.43a.73.73,0,0,0,.33-.08.63.63,0,0,0,.23-.23v-.5h-.32a.82.82,0,0,0-.49.12.36.36,0,0,0-.17.32.34.34,0,0,0,.12.27A.4.4,0,0,0,44.91,126.25Z"/><path class="cls-3" d="M46.7,125.34a1.56,1.56,0,0,1,.29-1,.89.89,0,0,1,.76-.37.86.86,0,0,1,.67.29v-1.35H49v3.75h-.54l0-.27a.88.88,0,0,1-.71.32.92.92,0,0,1-.75-.37A1.65,1.65,0,0,1,46.7,125.34Zm.6,0a1.13,1.13,0,0,0,.15.63.5.5,0,0,0,.44.23.56.56,0,0,0,.53-.33v-1.13a.54.54,0,0,0-.52-.31.51.51,0,0,0-.45.22A1.31,1.31,0,0,0,47.3,125.39Z"/><path class="cls-3" d="M52,123.13l1,2.72,1-2.72h.8v3.55h-.62v-1.17l.06-1.57-1.05,2.74h-.44l-1-2.74.06,1.57v1.17h-.61v-3.55Z"/><path class="cls-3" d="M55.63,123.35a.29.29,0,0,1,.09-.22.39.39,0,0,1,.5,0,.29.29,0,0,1,.09.22.32.32,0,0,1-.09.23.43.43,0,0,1-.5,0A.32.32,0,0,1,55.63,123.35Zm.64,3.33h-.6V124h.6Z"/><path class="cls-3" d="M57.59,124v.3a1,1,0,0,1,.77-.35c.55,0,.83.32.84.94v1.75h-.59V125a.54.54,0,0,0-.11-.37.45.45,0,0,0-.35-.12.57.57,0,0,0-.54.32v1.88H57V124Z"/><path class="cls-3" d="M59.83,125.34a1.56,1.56,0,0,1,.29-1,.94.94,0,0,1,1.43-.08v-1.35h.6v3.75h-.54l0-.27a.88.88,0,0,1-.71.32.92.92,0,0,1-.75-.37A1.65,1.65,0,0,1,59.83,125.34Zm.59,0a1.13,1.13,0,0,0,.16.63.5.5,0,0,0,.44.23.56.56,0,0,0,.53-.33v-1.13a.54.54,0,0,0-.52-.31.51.51,0,0,0-.45.22A1.3,1.3,0,0,0,60.42,125.39Z"/><path class="cls-3" d="M64.37,126a.27.27,0,0,0-.13-.24,1.86,1.86,0,0,0-.43-.15,1.92,1.92,0,0,1-.51-.16.67.67,0,0,1-.44-.62.69.69,0,0,1,.28-.57,1.19,1.19,0,0,1,.74-.23,1.21,1.21,0,0,1,.76.23.73.73,0,0,1,.29.61h-.59a.36.36,0,0,0-.12-.28.49.49,0,0,0-.34-.12.53.53,0,0,0-.32.09.3.3,0,0,0-.12.25.23.23,0,0,0,.11.21,1.61,1.61,0,0,0,.46.15,2.07,2.07,0,0,1,.55.18.87.87,0,0,1,.3.26.74.74,0,0,1-.2.94,1.26,1.26,0,0,1-.78.22,1.32,1.32,0,0,1-.57-.12,1,1,0,0,1-.4-.32.79.79,0,0,1-.14-.44h.58a.39.39,0,0,0,.15.32.79.79,0,0,0,.75,0A.29.29,0,0,0,64.37,126Z"/><path class="cls-3" d="M114.76,144h-.61v-3.56h.61Z"/><path class="cls-3" d="M116.14,141.37l0,.3a1,1,0,0,1,.77-.35c.55,0,.83.31.84.94V144h-.6V142.3a.52.52,0,0,0-.11-.38.45.45,0,0,0-.35-.12.58.58,0,0,0-.54.33V144h-.59v-2.64Z"/><path class="cls-3" d="M119.43,143.26l.56-1.89h.61l-.92,2.64h-.51l-.92-2.64h.61Z"/><path class="cls-3" d="M121.09,140.68a.32.32,0,0,1,.09-.23.39.39,0,0,1,.5,0,.32.32,0,0,1,.09.23.29.29,0,0,1-.09.22.39.39,0,0,1-.5,0A.29.29,0,0,1,121.09,140.68Zm.63,3.33h-.59v-2.64h.59Z"/><path class="cls-3" d="M124,143.29a.27.27,0,0,0-.13-.24,1.3,1.3,0,0,0-.44-.15,1.84,1.84,0,0,1-.5-.16.67.67,0,0,1-.45-.62.7.7,0,0,1,.29-.57,1.1,1.1,0,0,1,.73-.23,1.24,1.24,0,0,1,.77.23.76.76,0,0,1,.29.61H124a.41.41,0,0,0-.13-.29.51.51,0,0,0-.34-.11.55.55,0,0,0-.32.09.29.29,0,0,0-.12.24.25.25,0,0,0,.12.22,1.5,1.5,0,0,0,.46.15,2.21,2.21,0,0,1,.55.18.74.74,0,0,1,.29.26.61.61,0,0,1,.1.36.69.69,0,0,1-.3.58,1.28,1.28,0,0,1-.77.22,1.34,1.34,0,0,1-.58-.12,1,1,0,0,1-.39-.32.74.74,0,0,1-.14-.44H123a.42.42,0,0,0,.16.32.67.67,0,0,0,.39.11.58.58,0,0,0,.35-.09A.26.26,0,0,0,124,143.29Z"/><path class="cls-3" d="M125.2,140.68a.32.32,0,0,1,.09-.23.33.33,0,0,1,.25-.09.35.35,0,0,1,.25.09.36.36,0,0,1,.08.23.33.33,0,0,1-.08.22.35.35,0,0,1-.25.09.33.33,0,0,1-.25-.09A.29.29,0,0,1,125.2,140.68Zm.63,3.33h-.59v-2.64h.59Z"/><path class="cls-3" d="M128.92,142.71a1.61,1.61,0,0,1-.27,1,.9.9,0,0,1-.76.37.86.86,0,0,1-.72-.34l0,.29h-.54v-3.75h.6v1.36a.86.86,0,0,1,.69-.3.88.88,0,0,1,.75.36,1.57,1.57,0,0,1,.28,1Zm-.59-.05a1.12,1.12,0,0,0-.15-.64.5.5,0,0,0-.44-.22.55.55,0,0,0-.54.34v1.09a.54.54,0,0,0,.54.34.49.49,0,0,0,.43-.21,1.1,1.1,0,0,0,.16-.62Z"/><path class="cls-3" d="M129.54,140.68a.32.32,0,0,1,.09-.23.39.39,0,0,1,.5,0,.32.32,0,0,1,.09.23.29.29,0,0,1-.09.22.39.39,0,0,1-.5,0A.29.29,0,0,1,129.54,140.68Zm.63,3.33h-.59v-2.64h.59Z"/><path class="cls-3" d="M131.58,144H131v-3.75h.6Z"/><path class="cls-3" d="M132.35,140.68a.36.36,0,0,1,.08-.23.35.35,0,0,1,.25-.09.33.33,0,0,1,.25.09.32.32,0,0,1,.09.23.29.29,0,0,1-.09.22.33.33,0,0,1-.25.09.35.35,0,0,1-.25-.09A.33.33,0,0,1,132.35,140.68ZM133,144h-.6v-2.64h.6Z"/><path class="cls-3" d="M134.49,140.72v.65H135v.44h-.47v1.47a.34.34,0,0,0,.06.22.3.3,0,0,0,.22.07l.2,0V144a1.32,1.32,0,0,1-.39.06c-.45,0-.68-.26-.68-.76v-1.49h-.43v-.44h.43v-.65Z"/><path class="cls-3" d="M136.46,143.16l.54-1.79h.63l-1,3a.85.85,0,0,1-.82.66,1.06,1.06,0,0,1-.29,0v-.46h.12a.5.5,0,0,0,.33-.09.46.46,0,0,0,.18-.27l.09-.23-.93-2.62h.64Z"/><rect class="cls-7" x="98.85" y="90.56" width="43.25" height="4.26"/><rect class="cls-7" x="98.85" y="98.07" width="43.25" height="4.26"/><rect class="cls-7" x="98.85" y="105.59" width="28.47" height="4.26"/><rect class="cls-7" x="37.61" y="134.93" width="43.25" height="4.26"/><rect class="cls-7" x="37.61" y="142.45" width="43.25" height="4.26"/><rect class="cls-7" x="37.61" y="157.48" width="43.25" height="4.26"/><rect class="cls-7" x="37.61" y="149.96" width="28.47" height="4.26"/><rect class="cls-7" x="173.6" y="109.1" width="43.25" height="4.26"/><rect class="cls-7" x="173.6" y="116.62" width="43.25" height="4.26"/><rect class="cls-7" x="113.54" y="148.33" width="43.25" height="4.26"/><rect class="cls-7" x="113.54" y="155.85" width="43.25" height="4.26"/><rect class="cls-7" x="173.6" y="131.65" width="43.25" height="4.26"/><rect class="cls-7" x="173.6" y="124.14" width="28.47" height="4.26"/><rect class="cls-7" x="173.6" y="138.54" width="28.47" height="4.26"/><rect class="cls-8" x="67.47" y="39.03" width="16.02" height="6.68" rx="1"/><rect class="cls-8" x="90.84" y="27.51" width="16.02" height="6.68" rx="1"/><rect class="cls-9" x="37.52" y="34.37" width="16.02" height="6.68" rx="1"/><rect class="cls-9" x="30.27" y="20.83" width="16.02" height="6.68" rx="1"/><path class="cls-10" d="M116.35,38.39a10.19,10.19,0,0,1,5.7,4.59,10.61,10.61,0,0,1,.87,8.18c-.26.89,1.4,2,1.69,1a12.31,12.31,0,0,0-1.06-9.61,12.9,12.9,0,0,0-7.1-5.78c-1.25-.41-1.07,1.3-.1,1.61Z"/><path class="cls-10" d="M115.45,37.2a9.46,9.46,0,0,1,.65,4.4c0,.17.17.38.27.48a1.82,1.82,0,0,0,.67.39c.31.09.87.17.91-.27a10.4,10.4,0,0,0-.67-4.91l-.88.43a7.69,7.69,0,0,0,5-.3c.87-.38-.71-1.5-1.32-1.24a6,6,0,0,1-1.92.51,4,4,0,0,1-.49,0h-.41l-.53-.06-.22,0-.13,0c.1,0,.09,0,0,0-.3-.07-1.1-.14-.87.44a9.83,9.83,0,0,1,.6,4.59l1.85.6a10.23,10.23,0,0,0-.71-4.71,1.5,1.5,0,0,0-1.15-.77c-.31,0-.81.05-.64.48Z"/><circle class="cls-11" cx="91.92" cy="168.23" r="4.67"/><path class="cls-12" d="M91.9,165.14h0L94.37,169a0,0,0,0,1,0,0H89.48s0,0,0,0Z"/><rect class="cls-12" x="91.14" y="168.49" width="1.56" height="3.11" rx="0.02"/><circle class="cls-11" cx="168.18" cy="188.23" r="4.67"/><path class="cls-12" d="M168.16,185.14h0l2.44,3.84a0,0,0,0,1,0,0h-4.88s0,0,0,0Z"/><rect class="cls-12" x="167.4" y="188.49" width="1.56" height="3.11" rx="0.02"/><circle class="cls-11" cx="227.22" cy="154.22" r="4.67"/><path class="cls-12" d="M227.2,151.13h0l2.44,3.84a0,0,0,0,1,0,0h-4.88s0,0,0,0Z"/><rect class="cls-12" x="226.44" y="154.48" width="1.56" height="3.11" rx="0.02"/><circle class="cls-13" cx="151.7" cy="121.04" r="4.42"/><path class="cls-12" d="M151.69,118.11s0,0,0,0l2.33,3.65v0h-4.65v0Z"/><rect class="cls-12" x="150.96" y="121.29" width="1.47" height="2.95" rx="0.01"/></g></g></svg>