<svg xmlns="http://www.w3.org/2000/svg" viewBox="0 0 627.21 469.43"><defs><style>.cls-1{fill:#b2cc35;}.cls-2,.cls-5,.cls-8{fill:#fff;}.cls-3{fill:#fbdb3b;}.cls-4{fill:#3262ae;}.cls-5{stroke:#3262ae;}.cls-5,.cls-8{stroke-miterlimit:10;stroke-width:3px;}.cls-6{fill:#6d6e71;}.cls-7{fill:#f1f2f2;}.cls-8{stroke:#ffde17;}</style></defs><g id="Layer_2" data-name="Layer 2"><g id="Layer_1-2" data-name="Layer 1"><circle class="cls-1" cx="248" cy="430.99" r="38.44"/><path class="cls-2" d="M249.14,440.41a.31.31,0,0,1,.05.43l-4.38,5.46a.31.31,0,0,1-.43.05l-14.77-11.84a.33.33,0,0,1-.05-.44l4.38-5.45a.3.3,0,0,1,.43-.05Z"/><path class="cls-2" d="M245,446.67a.32.32,0,0,1-.44,0l-6.42-5.37a.32.32,0,0,1,0-.44l22.75-27.19a.31.31,0,0,1,.44,0L267.7,419a.31.31,0,0,1,0,.44Z"/><circle class="cls-3" cx="71.1" cy="151.21" r="43"/><path class="cls-2" d="M68.07,164.18a16.63,16.63,0,0,1,1-6.28,16.34,16.34,0,0,1,3.87-5.15,30.57,30.57,0,0,0,3.66-4,7,7,0,0,0,1.18-3.91,6,6,0,0,0-1.37-4.25,5.32,5.32,0,0,0-4-1.46,5.86,5.86,0,0,0-4.11,1.43,5.05,5.05,0,0,0-1.55,3.89h-7.2a10.63,10.63,0,0,1,3.57-8.31,13.64,13.64,0,0,1,9.29-3.06q6,0,9.29,3c2.22,2,3.34,4.84,3.34,8.46q0,4.83-4.51,9.52l-3.65,3.59c-1.3,1.48-2,3.65-2,6.49Zm-.5,9.21a3.78,3.78,0,0,1,1.09-2.82,4.6,4.6,0,0,1,6,0,3.81,3.81,0,0,1,1.1,2.79,3.72,3.72,0,0,1-1.07,2.71,4,4,0,0,1-3,1.1,4,4,0,0,1-3-1.1A3.74,3.74,0,0,1,67.57,173.39Z"/><circle class="cls-4" cx="421.7" cy="321.51" r="39.41"/><path class="cls-2" d="M416.37,341.5a4.27,4.27,0,0,1,1.22-3.11,5.12,5.12,0,0,1,6.66,0,4.27,4.27,0,0,1,1.22,3.11,4.16,4.16,0,0,1-1.19,3,5.27,5.27,0,0,1-6.72,0A4.16,4.16,0,0,1,416.37,341.5Zm7.88-10.34h-6.89l-.76-33.87H425Z"/><rect class="cls-5" x="135.55" y="1.5" width="339.26" height="135.26" rx="23"/><path class="cls-6" d="M163.54,35.87H161.2V22.36h2.34Z"/><path class="cls-6" d="M180.71,32.76l1.59-6.93h2.2l-2.73,10h-1.86L177.76,29l-2.12,6.89h-1.85l-2.75-10h2.2l1.62,6.86,2.06-6.86h1.7Z"/><path class="cls-6" d="M186.06,30.76a5.91,5.91,0,0,1,.59-2.66,4.27,4.27,0,0,1,1.64-1.82,4.66,4.66,0,0,1,2.43-.63A4.41,4.41,0,0,1,194,27a5.19,5.19,0,0,1,1.37,3.47V31a6,6,0,0,1-.57,2.66,4.15,4.15,0,0,1-1.64,1.8,4.62,4.62,0,0,1-2.45.65,4.36,4.36,0,0,1-3.4-1.42,5.42,5.42,0,0,1-1.28-3.77Zm2.26.19a4,4,0,0,0,.64,2.43,2.23,2.23,0,0,0,3.56,0,4.53,4.53,0,0,0,.63-2.61,4,4,0,0,0-.65-2.41,2.08,2.08,0,0,0-1.78-.89,2.06,2.06,0,0,0-1.75.87A4.35,4.35,0,0,0,188.32,31Z"/><path class="cls-6" d="M203.86,34.89A3.49,3.49,0,0,1,201,36.06a3.1,3.1,0,0,1-2.47-1,4.08,4.08,0,0,1-.84-2.77v-6.5H200v6.48c0,1.27.53,1.91,1.59,1.91A2.24,2.24,0,0,0,203.79,33V25.83H206v10h-2.12Z"/><path class="cls-6" d="M211.21,35.87H209V21.62h2.26Z"/><path class="cls-6" d="M213.71,30.78a6,6,0,0,1,1.08-3.73,3.47,3.47,0,0,1,2.89-1.4,3.29,3.29,0,0,1,2.58,1.11V21.62h2.25V35.87h-2l-.11-1a3.33,3.33,0,0,1-2.7,1.23,3.43,3.43,0,0,1-2.85-1.42A6.19,6.19,0,0,1,213.71,30.78ZM216,31a4.2,4.2,0,0,0,.59,2.39,1.91,1.91,0,0,0,1.67.86,2.14,2.14,0,0,0,2-1.24V28.7a2.12,2.12,0,0,0-2-1.21,1.93,1.93,0,0,0-1.69.87A4.71,4.71,0,0,0,216,31Z"/><path class="cls-6" d="M232.94,35.87h-2.25V21.62h2.25Z"/><path class="cls-6" d="M235.45,30.76A5.91,5.91,0,0,1,236,28.1a4.29,4.29,0,0,1,1.65-1.82,4.63,4.63,0,0,1,2.43-.63A4.37,4.37,0,0,1,243.4,27a5.15,5.15,0,0,1,1.37,3.47V31a6,6,0,0,1-.57,2.66,4.13,4.13,0,0,1-1.63,1.8,4.66,4.66,0,0,1-2.46.65,4.34,4.34,0,0,1-3.39-1.42,5.37,5.37,0,0,1-1.28-3.77Zm2.25.19a4.08,4.08,0,0,0,.64,2.43,2.1,2.1,0,0,0,1.78.88,2.06,2.06,0,0,0,1.78-.89,4.53,4.53,0,0,0,.64-2.61,3.94,3.94,0,0,0-.66-2.41,2.05,2.05,0,0,0-1.77-.89,2.09,2.09,0,0,0-1.76.87A4.42,4.42,0,0,0,237.7,31Z"/><path class="cls-6" d="M250.56,33l2.13-7.18H255l-3.48,10h-2l-3.51-10h2.34Z"/><path class="cls-6" d="M261.2,36.06a4.68,4.68,0,0,1-3.48-1.35,4.89,4.89,0,0,1-1.33-3.6v-.28a6,6,0,0,1,.58-2.68,4.37,4.37,0,0,1,1.63-1.84,4.31,4.31,0,0,1,2.34-.66,4,4,0,0,1,3.17,1.3,5.59,5.59,0,0,1,1.11,3.71v.91h-6.56a3,3,0,0,0,.83,2,2.53,2.53,0,0,0,1.84.73A3,3,0,0,0,263.85,33l1.21,1.16a4,4,0,0,1-1.6,1.4A5.1,5.1,0,0,1,261.2,36.06Zm-.27-8.6a1.9,1.9,0,0,0-1.5.64,3.45,3.45,0,0,0-.73,1.81H263v-.16a2.67,2.67,0,0,0-.61-1.71A1.86,1.86,0,0,0,260.93,27.46Z"/><path class="cls-6" d="M275.48,23.39v2.44h1.77V27.5h-1.77v5.61a1.25,1.25,0,0,0,.22.83,1.09,1.09,0,0,0,.82.25,3.61,3.61,0,0,0,.79-.09v1.74a5.72,5.72,0,0,1-1.49.22c-1.73,0-2.6-1-2.6-2.87V27.5h-1.65V25.83h1.65V23.39Z"/><path class="cls-6" d="M278.74,30.76a5.91,5.91,0,0,1,.59-2.66A4.33,4.33,0,0,1,281,26.28a4.68,4.68,0,0,1,2.43-.63,4.38,4.38,0,0,1,3.3,1.3,5.19,5.19,0,0,1,1.37,3.47V31a6,6,0,0,1-.57,2.66,4.15,4.15,0,0,1-1.64,1.8,4.6,4.6,0,0,1-2.45.65,4.36,4.36,0,0,1-3.4-1.42,5.42,5.42,0,0,1-1.28-3.77ZM281,31a4,4,0,0,0,.64,2.43,2.23,2.23,0,0,0,3.56,0,4.53,4.53,0,0,0,.63-2.61,4,4,0,0,0-.65-2.41,2.21,2.21,0,0,0-3.53,0A4.42,4.42,0,0,0,281,31Z"/><path class="cls-6" d="M301.29,33.14a1,1,0,0,0-.49-.92,5.38,5.38,0,0,0-1.65-.55,8.7,8.7,0,0,1-1.92-.61,2.57,2.57,0,0,1-1.69-2.37,2.64,2.64,0,0,1,1.1-2.17,4.3,4.3,0,0,1,2.78-.87,4.47,4.47,0,0,1,2.91.89,2.84,2.84,0,0,1,1.11,2.31h-2.26a1.37,1.37,0,0,0-.48-1.08,1.84,1.84,0,0,0-1.28-.44,2,2,0,0,0-1.21.35,1.09,1.09,0,0,0-.47.92.9.9,0,0,0,.43.8,5.72,5.72,0,0,0,1.77.58,8.48,8.48,0,0,1,2.08.7,2.92,2.92,0,0,1,1.12,1,2.42,2.42,0,0,1,.37,1.37,2.62,2.62,0,0,1-1.12,2.2,4.79,4.79,0,0,1-2.94.84,5.12,5.12,0,0,1-2.2-.45,3.69,3.69,0,0,1-1.51-1.22,3,3,0,0,1-.53-1.68h2.19a1.59,1.59,0,0,0,.6,1.23,2.38,2.38,0,0,0,1.47.43,2.33,2.33,0,0,0,1.36-.34A1,1,0,0,0,301.29,33.14Z"/><path class="cls-6" d="M310.37,36.06a4.68,4.68,0,0,1-3.48-1.35,4.93,4.93,0,0,1-1.33-3.6v-.28a6.1,6.1,0,0,1,.58-2.68,4.37,4.37,0,0,1,1.63-1.84,4.31,4.31,0,0,1,2.34-.66,4,4,0,0,1,3.17,1.3,5.59,5.59,0,0,1,1.11,3.71v.91h-6.55a2.93,2.93,0,0,0,.83,2,2.49,2.49,0,0,0,1.83.73A3,3,0,0,0,313,33l1.22,1.16a4.12,4.12,0,0,1-1.61,1.4A5.07,5.07,0,0,1,310.37,36.06Zm-.27-8.6a1.9,1.9,0,0,0-1.5.64,3.45,3.45,0,0,0-.73,1.81h4.3v-.16a2.67,2.67,0,0,0-.61-1.71A1.86,1.86,0,0,0,310.1,27.46Z"/><path class="cls-6" d="M321,36.06a4.68,4.68,0,0,1-3.48-1.35,4.93,4.93,0,0,1-1.33-3.6v-.28a6.1,6.1,0,0,1,.58-2.68,4.37,4.37,0,0,1,1.63-1.84,4.31,4.31,0,0,1,2.34-.66A4,4,0,0,1,324,27a5.59,5.59,0,0,1,1.11,3.71v.91h-6.55a2.93,2.93,0,0,0,.83,2,2.49,2.49,0,0,0,1.83.73A3,3,0,0,0,323.69,33l1.22,1.16a4.12,4.12,0,0,1-1.61,1.4A5.07,5.07,0,0,1,321,36.06Zm-.27-8.6a1.9,1.9,0,0,0-1.5.64,3.45,3.45,0,0,0-.73,1.81h4.3v-.16a2.67,2.67,0,0,0-.61-1.71A1.86,1.86,0,0,0,320.77,27.46Z"/><path class="cls-6" d="M335.32,23.39v2.44h1.77V27.5h-1.77v5.61a1.25,1.25,0,0,0,.23.83,1,1,0,0,0,.81.25,3.61,3.61,0,0,0,.79-.09v1.74a5.72,5.72,0,0,1-1.49.22c-1.73,0-2.6-1-2.6-2.87V27.5h-1.65V25.83h1.65V23.39Z"/><path class="cls-6" d="M341.51,26.93a3.5,3.5,0,0,1,2.79-1.28q3.21,0,3.26,3.66v6.56H345.3V29.4a2,2,0,0,0-.45-1.48,1.87,1.87,0,0,0-1.32-.43,2.18,2.18,0,0,0-2,1.21v7.17h-2.26V21.62h2.26Z"/><path class="cls-6" d="M350.32,23.23A1.16,1.16,0,0,1,351.59,22a1.25,1.25,0,0,1,.94.34,1.18,1.18,0,0,1,.34.87,1.11,1.11,0,0,1-.34.84,1.25,1.25,0,0,1-.94.34,1.22,1.22,0,0,1-.94-.34A1.14,1.14,0,0,1,350.32,23.23Zm2.39,12.64h-2.26v-10h2.26Z"/><path class="cls-6" d="M361.26,33.14a1,1,0,0,0-.49-.92,5.28,5.28,0,0,0-1.65-.55,8.7,8.7,0,0,1-1.92-.61,2.57,2.57,0,0,1-1.69-2.37,2.67,2.67,0,0,1,1.1-2.17,4.32,4.32,0,0,1,2.78-.87,4.47,4.47,0,0,1,2.91.89,2.81,2.81,0,0,1,1.11,2.31h-2.26a1.37,1.37,0,0,0-.48-1.08,1.84,1.84,0,0,0-1.28-.44,2,2,0,0,0-1.21.35,1.09,1.09,0,0,0-.47.92.91.91,0,0,0,.44.8,5.54,5.54,0,0,0,1.76.58,8.48,8.48,0,0,1,2.08.7,2.85,2.85,0,0,1,1.12,1,2.42,2.42,0,0,1,.37,1.37,2.62,2.62,0,0,1-1.12,2.2,4.79,4.79,0,0,1-2.94.84,5.15,5.15,0,0,1-2.2-.45,3.66,3.66,0,0,1-1.5-1.22,2.9,2.9,0,0,1-.54-1.68h2.19a1.59,1.59,0,0,0,.6,1.23,2.38,2.38,0,0,0,1.47.43A2.33,2.33,0,0,0,360.8,34,1,1,0,0,0,361.26,33.14Z"/><path class="cls-6" d="M371.13,23.23a1.21,1.21,0,0,1,.33-.87,1.23,1.23,0,0,1,.94-.34,1.27,1.27,0,0,1,1,.34,1.21,1.21,0,0,1,.33.87,1.14,1.14,0,0,1-.33.84,1.27,1.27,0,0,1-1,.34,1.23,1.23,0,0,1-.94-.34A1.14,1.14,0,0,1,371.13,23.23Zm2.39,12.64h-2.25v-10h2.25Z"/><path class="cls-6" d="M378.54,25.83l.07,1.16a3.6,3.6,0,0,1,2.92-1.34c2.09,0,3.16,1.19,3.19,3.59v6.63h-2.25v-6.5a2.11,2.11,0,0,0-.41-1.42,1.77,1.77,0,0,0-1.35-.46,2.18,2.18,0,0,0-2,1.24v7.14h-2.25v-10Z"/><path class="cls-6" d="M395.53,23.39v2.44h1.77V27.5h-1.77v5.61a1.25,1.25,0,0,0,.22.83,1,1,0,0,0,.81.25,3.55,3.55,0,0,0,.79-.09v1.74a5.59,5.59,0,0,1-1.48.22c-1.73,0-2.6-1-2.6-2.87V27.5h-1.65V25.83h1.65V23.39Z"/><path class="cls-6" d="M401.72,26.93a3.49,3.49,0,0,1,2.79-1.28q3.21,0,3.25,3.66v6.56h-2.25V29.4a2,2,0,0,0-.45-1.48,1.87,1.87,0,0,0-1.32-.43,2.17,2.17,0,0,0-2,1.21v7.17h-2.26V21.62h2.26Z"/><path class="cls-6" d="M414.94,36.06a4.68,4.68,0,0,1-3.48-1.35,4.93,4.93,0,0,1-1.33-3.6v-.28a6,6,0,0,1,.58-2.68,4.37,4.37,0,0,1,1.63-1.84,4.31,4.31,0,0,1,2.34-.66,4,4,0,0,1,3.17,1.3A5.59,5.59,0,0,1,419,30.66v.91H412.4a3,3,0,0,0,.83,2,2.53,2.53,0,0,0,1.84.73A3,3,0,0,0,417.59,33l1.22,1.16a4.12,4.12,0,0,1-1.61,1.4A5.1,5.1,0,0,1,414.94,36.06Zm-.27-8.6a1.9,1.9,0,0,0-1.5.64,3.45,3.45,0,0,0-.73,1.81h4.3v-.16a2.67,2.67,0,0,0-.61-1.71A1.86,1.86,0,0,0,414.67,27.46Z"/><path class="cls-6" d="M431.65,27.89a5.53,5.53,0,0,0-.92-.07A2.07,2.07,0,0,0,428.64,29v6.87h-2.25v-10h2.15L428.6,27a2.53,2.53,0,0,1,2.26-1.3,2.06,2.06,0,0,1,.8.13Z"/><path class="cls-6" d="M437.79,36.06a4.66,4.66,0,0,1-3.47-1.35,4.89,4.89,0,0,1-1.33-3.6v-.28a6,6,0,0,1,.58-2.68,4.3,4.3,0,0,1,1.63-1.84,4.25,4.25,0,0,1,2.33-.66A3.93,3.93,0,0,1,440.7,27a5.54,5.54,0,0,1,1.12,3.71v.91h-6.56a3,3,0,0,0,.83,2,2.52,2.52,0,0,0,1.83.73A3,3,0,0,0,440.45,33l1.21,1.16a4.05,4.05,0,0,1-1.61,1.4A5,5,0,0,1,437.79,36.06Zm-.27-8.6a1.89,1.89,0,0,0-1.49.64,3.37,3.37,0,0,0-.73,1.81h4.29v-.16A2.72,2.72,0,0,0,439,28,1.87,1.87,0,0,0,437.52,27.46Z"/><path class="cls-6" d="M450,35.87a3.59,3.59,0,0,1-.26-.94,3.77,3.77,0,0,1-5.1.26,2.74,2.74,0,0,1-1-2.13,2.84,2.84,0,0,1,1.2-2.46,5.69,5.69,0,0,1,3.4-.86h1.39v-.66a1.76,1.76,0,0,0-.44-1.25,1.74,1.74,0,0,0-1.33-.47,2,2,0,0,0-1.26.39,1.2,1.2,0,0,0-.49,1h-2.25a2.54,2.54,0,0,1,.54-1.55A3.7,3.7,0,0,1,446,26.06a5.11,5.11,0,0,1,2.1-.41,4.23,4.23,0,0,1,2.82.88A3.19,3.19,0,0,1,452,29v4.53a5.2,5.2,0,0,0,.38,2.16v.16Zm-2.48-1.62a2.52,2.52,0,0,0,1.26-.33,2.19,2.19,0,0,0,.89-.87V31.16h-1.22a3.33,3.33,0,0,0-1.88.43,1.43,1.43,0,0,0-.63,1.24,1.29,1.29,0,0,0,.43,1A1.65,1.65,0,0,0,447.56,34.25Z"/><path class="cls-6" d="M457.19,35.87h-2.25V21.62h2.25Z"/><path class="cls-6" d="M169.66,55.56l1.6-6.93h2.2l-2.74,10h-1.85l-2.15-6.89-2.12,6.89h-1.86l-2.74-10h2.2l1.62,6.86,2.06-6.86h1.7Z"/><path class="cls-6" d="M175,53.56a5.91,5.91,0,0,1,.58-2.66,4.29,4.29,0,0,1,1.65-1.82,4.63,4.63,0,0,1,2.43-.63,4.41,4.41,0,0,1,3.3,1.3,5.19,5.19,0,0,1,1.36,3.48v.52a6,6,0,0,1-.57,2.66,4.21,4.21,0,0,1-1.63,1.81,4.75,4.75,0,0,1-2.46.64,4.36,4.36,0,0,1-3.39-1.42A5.37,5.37,0,0,1,175,53.67Zm2.25.19a4.1,4.1,0,0,0,.64,2.43,2.11,2.11,0,0,0,1.78.88,2,2,0,0,0,1.78-.9,4.4,4.4,0,0,0,.64-2.6,3.94,3.94,0,0,0-.66-2.41,2.05,2.05,0,0,0-1.77-.89,2.09,2.09,0,0,0-1.76.87A4.42,4.42,0,0,0,177.27,53.75Z"/><path class="cls-6" d="M192,50.69a5.53,5.53,0,0,0-.92-.07A2.07,2.07,0,0,0,189,51.81v6.86h-2.25v-10h2.15l.06,1.12a2.53,2.53,0,0,1,2.26-1.3,2.06,2.06,0,0,1,.8.13Z"/><path class="cls-6" d="M196.29,58.67H194V44.42h2.26Z"/><path class="cls-6" d="M198.79,53.58a6,6,0,0,1,1.08-3.73,3.44,3.44,0,0,1,2.89-1.4,3.29,3.29,0,0,1,2.58,1.11V44.42h2.25V58.67h-2l-.11-1a3.33,3.33,0,0,1-2.7,1.23,3.43,3.43,0,0,1-2.85-1.42A6.19,6.19,0,0,1,198.79,53.58Zm2.26.19a4.2,4.2,0,0,0,.59,2.39,1.91,1.91,0,0,0,1.67.86,2.15,2.15,0,0,0,2-1.23V51.5a2.11,2.11,0,0,0-2-1.21,1.93,1.93,0,0,0-1.69.87A4.71,4.71,0,0,0,201.05,53.77Z"/><path class="cls-6" d="M224.43,53.75a6.06,6.06,0,0,1-1,3.72,3.4,3.4,0,0,1-2.87,1.39,3.28,3.28,0,0,1-2.75-1.28l-.11,1.09h-2V44.42h2.25V49.6a3.26,3.26,0,0,1,2.63-1.15,3.43,3.43,0,0,1,2.88,1.36,6.12,6.12,0,0,1,1.05,3.81Zm-2.25-.19a4.28,4.28,0,0,0-.58-2.45,1.92,1.92,0,0,0-1.67-.82,2.1,2.1,0,0,0-2.06,1.28v4.14A2.12,2.12,0,0,0,220,57a1.89,1.89,0,0,0,1.63-.79,4.14,4.14,0,0,0,.6-2.38Z"/><path class="cls-6" d="M231.22,58.86a4.72,4.72,0,0,1-3.48-1.35,4.89,4.89,0,0,1-1.33-3.6v-.28A5.93,5.93,0,0,1,227,51a4.37,4.37,0,0,1,1.63-1.84,4.31,4.31,0,0,1,2.34-.66,3.93,3.93,0,0,1,3.16,1.3,5.54,5.54,0,0,1,1.12,3.71v.91h-6.56a3,3,0,0,0,.83,2,2.48,2.48,0,0,0,1.83.73,3,3,0,0,0,2.53-1.26L235.08,57a4,4,0,0,1-1.61,1.4A5,5,0,0,1,231.22,58.86Zm-.27-8.6a1.9,1.9,0,0,0-1.5.64,3.37,3.37,0,0,0-.73,1.81H233v-.16a2.72,2.72,0,0,0-.6-1.72A1.89,1.89,0,0,0,231,50.26Z"/><path class="cls-6" d="M241.59,57.06a2.08,2.08,0,0,0,1.4-.49,1.68,1.68,0,0,0,.59-1.22h2.13a3.33,3.33,0,0,1-.59,1.75,3.77,3.77,0,0,1-1.48,1.28,4.39,4.39,0,0,1-2,.48,4.27,4.27,0,0,1-3.34-1.37A5.36,5.36,0,0,1,237,53.73v-.24a5.32,5.32,0,0,1,1.23-3.67,4.22,4.22,0,0,1,3.34-1.37,4.09,4.09,0,0,1,2.91,1,3.73,3.73,0,0,1,1.19,2.74h-2.13a2,2,0,0,0-.59-1.42,1.87,1.87,0,0,0-1.4-.55,2,2,0,0,0-1.69.79,4,4,0,0,0-.6,2.41v.36a4,4,0,0,0,.59,2.43A2,2,0,0,0,241.59,57.06Z"/><path class="cls-6" d="M253.88,58.67a3.59,3.59,0,0,1-.26-.94A3.49,3.49,0,0,1,251,58.86a3.53,3.53,0,0,1-2.47-.87,2.74,2.74,0,0,1-1-2.13,2.84,2.84,0,0,1,1.2-2.46,5.71,5.71,0,0,1,3.41-.86h1.38v-.66a1.76,1.76,0,0,0-.44-1.25,1.73,1.73,0,0,0-1.32-.47,2,2,0,0,0-1.27.39,1.21,1.21,0,0,0-.49,1h-2.25a2.49,2.49,0,0,1,.55-1.55,3.7,3.7,0,0,1,1.48-1.13,5.29,5.29,0,0,1,2.11-.4,4.22,4.22,0,0,1,2.81.88,3.15,3.15,0,0,1,1.07,2.49v4.53a5.16,5.16,0,0,0,.38,2.16v.16Zm-2.47-1.62a2.51,2.51,0,0,0,1.25-.33,2.14,2.14,0,0,0,.89-.87V54h-1.22a3.33,3.33,0,0,0-1.88.43,1.41,1.41,0,0,0-.63,1.24,1.31,1.31,0,0,0,.43,1A1.66,1.66,0,0,0,251.41,57.05Z"/><path class="cls-6" d="M264.72,57.69a3.49,3.49,0,0,1-2.82,1.17,3.1,3.1,0,0,1-2.47-1,4.07,4.07,0,0,1-.84-2.76V48.63h2.25v6.48c0,1.27.53,1.91,1.59,1.91a2.24,2.24,0,0,0,2.22-1.18V48.63h2.25v10h-2.12Z"/><path class="cls-6" d="M275.3,55.94a1,1,0,0,0-.5-.92,5.28,5.28,0,0,0-1.65-.55,9.06,9.06,0,0,1-1.92-.61,2.58,2.58,0,0,1-1.68-2.37,2.66,2.66,0,0,1,1.09-2.17,4.34,4.34,0,0,1,2.78-.87,4.47,4.47,0,0,1,2.91.89,2.81,2.81,0,0,1,1.11,2.31h-2.25a1.35,1.35,0,0,0-.49-1.08,1.82,1.82,0,0,0-1.28-.43,2,2,0,0,0-1.21.34,1.09,1.09,0,0,0-.47.92.91.91,0,0,0,.44.8,5.64,5.64,0,0,0,1.76.58,8.58,8.58,0,0,1,2.09.7,3,3,0,0,1,1.12,1,2.5,2.5,0,0,1,.37,1.37,2.62,2.62,0,0,1-1.13,2.2,4.79,4.79,0,0,1-2.94.84,5.18,5.18,0,0,1-2.2-.45,3.65,3.65,0,0,1-1.5-1.22,2.9,2.9,0,0,1-.54-1.68h2.19a1.56,1.56,0,0,0,.6,1.22,2.37,2.37,0,0,0,1.48.44,2.24,2.24,0,0,0,1.35-.34A1.06,1.06,0,0,0,275.3,55.94Z"/><path class="cls-6" d="M284.37,58.86a4.69,4.69,0,0,1-3.47-1.35,4.89,4.89,0,0,1-1.33-3.6v-.28a5.93,5.93,0,0,1,.58-2.68,4.3,4.3,0,0,1,1.63-1.84,4.25,4.25,0,0,1,2.33-.66,3.93,3.93,0,0,1,3.17,1.3,5.54,5.54,0,0,1,1.12,3.71v.91h-6.56a3,3,0,0,0,.83,2,2.48,2.48,0,0,0,1.83.73A3,3,0,0,0,287,55.8L288.24,57a4.05,4.05,0,0,1-1.61,1.4A5,5,0,0,1,284.37,58.86Zm-.27-8.6a1.89,1.89,0,0,0-1.49.64,3.37,3.37,0,0,0-.73,1.81h4.29v-.16a2.78,2.78,0,0,0-.6-1.72A1.9,1.9,0,0,0,284.1,50.26Z"/><path class="cls-6" d="M292,56.3a1.27,1.27,0,0,1,1,.35,1.25,1.25,0,0,1,.35.9,1.18,1.18,0,0,1-.35.87,1.27,1.27,0,0,1-1,.35,1.33,1.33,0,0,1-1-.34,1.19,1.19,0,0,1-.35-.88,1.25,1.25,0,0,1,.34-.9A1.27,1.27,0,0,1,292,56.3Z"/><path class="cls-6" d="M297.81,56.3a1.21,1.21,0,0,1,1.32,1.25,1.18,1.18,0,0,1-.35.87,1.26,1.26,0,0,1-1,.35,1.29,1.29,0,0,1-.95-.34,1.16,1.16,0,0,1-.36-.88,1.2,1.2,0,0,1,1.31-1.25Z"/><path class="cls-6" d="M303.59,56.3a1.19,1.19,0,0,1,1.32,1.25,1.22,1.22,0,0,1-.34.87,1.52,1.52,0,0,1-1.93,0,1.16,1.16,0,0,1-.36-.88,1.2,1.2,0,0,1,1.31-1.25Z"/><rect class="cls-7" x="162.09" y="81.42" width="227.45" height="13.5"/><rect class="cls-7" x="162.09" y="103.59" width="171.82" height="13.5"/><rect class="cls-5" x="1.5" y="244.43" width="339.26" height="135.26" rx="23"/><path class="cls-6" d="M36.77,267.18H32.56V278.8H30.23V267.18H26.06v-1.89H36.77Z"/><path class="cls-6" d="M41,269.85a3.55,3.55,0,0,1,2.8-1.28q3.21,0,3.25,3.67v6.56H44.82v-6.48a2,2,0,0,0-.45-1.47,1.83,1.83,0,0,0-1.32-.43,2.18,2.18,0,0,0-2,1.2v7.18H38.77V264.55H41Z"/><path class="cls-6" d="M49.83,266.15a1.2,1.2,0,0,1,.33-.86,1.24,1.24,0,0,1,.94-.35,1.26,1.26,0,0,1,.95.35,1.2,1.2,0,0,1,.33.86,1.16,1.16,0,0,1-.33.85,1.26,1.26,0,0,1-.95.34,1.23,1.23,0,0,1-.94-.34A1.16,1.16,0,0,1,49.83,266.15Zm2.4,12.65H50v-10h2.26Z"/><path class="cls-6" d="M60.78,276.07a1,1,0,0,0-.5-.92,5.26,5.26,0,0,0-1.64-.56,8.2,8.2,0,0,1-1.92-.61A2.55,2.55,0,0,1,55,271.62a2.69,2.69,0,0,1,1.09-2.18,4.35,4.35,0,0,1,2.79-.87,4.48,4.48,0,0,1,2.9.89,2.84,2.84,0,0,1,1.11,2.31H60.67a1.4,1.4,0,0,0-.48-1.08,1.85,1.85,0,0,0-1.28-.43,2,2,0,0,0-1.21.35,1,1,0,0,0-.47.91.91.91,0,0,0,.43.81,5.9,5.9,0,0,0,1.77.58,8.63,8.63,0,0,1,2.08.7,2.84,2.84,0,0,1,1.12,1A2.4,2.4,0,0,1,63,276a2.63,2.63,0,0,1-1.12,2.19,4.8,4.8,0,0,1-3,.84,5.33,5.33,0,0,1-2.2-.44,3.67,3.67,0,0,1-1.5-1.23,2.9,2.9,0,0,1-.54-1.68h2.19a1.6,1.6,0,0,0,.61,1.23,2.32,2.32,0,0,0,1.47.43,2.26,2.26,0,0,0,1.36-.34A1,1,0,0,0,60.78,276.07Z"/><path class="cls-6" d="M72.76,268.76l.07,1.05a3.58,3.58,0,0,1,2.89-1.24,2.8,2.8,0,0,1,2.76,1.54,3.57,3.57,0,0,1,3.08-1.54,3.14,3.14,0,0,1,2.47.92,4,4,0,0,1,.83,2.71v6.6H82.61v-6.53a2,2,0,0,0-.42-1.41,1.86,1.86,0,0,0-1.38-.44,1.89,1.89,0,0,0-1.26.41,2.18,2.18,0,0,0-.68,1.08v6.89H76.62v-6.61a1.61,1.61,0,0,0-1.81-1.77,2,2,0,0,0-1.92,1.1v7.28H70.64v-10Z"/><path class="cls-6" d="M87.65,266.15a1.2,1.2,0,0,1,.33-.86,1.45,1.45,0,0,1,1.89,0,1.2,1.2,0,0,1,.33.86,1.16,1.16,0,0,1-.33.85A1.48,1.48,0,0,1,88,267,1.16,1.16,0,0,1,87.65,266.15Zm2.4,12.65H87.79v-10h2.26Z"/><path class="cls-6" d="M92.58,273.7a5.87,5.87,0,0,1,1.1-3.73,3.54,3.54,0,0,1,2.92-1.4,3.31,3.31,0,0,1,2.7,1.2l.1-1h2v9.73a4,4,0,0,1-1.23,3.12,4.67,4.67,0,0,1-3.31,1.14,5.28,5.28,0,0,1-2.16-.46,3.88,3.88,0,0,1-1.6-1.2l1.07-1.36A3.19,3.19,0,0,0,96.76,281a2.52,2.52,0,0,0,1.77-.61,2.35,2.35,0,0,0,.65-1.79v-.67a3.34,3.34,0,0,1-2.6,1.08,3.49,3.49,0,0,1-2.88-1.4A6,6,0,0,1,92.58,273.7Zm2.25.2a4.05,4.05,0,0,0,.61,2.38,2,2,0,0,0,1.71.87,2.18,2.18,0,0,0,2-1.17v-4.42a2.15,2.15,0,0,0-2-1.14,2,2,0,0,0-1.73.88A4.54,4.54,0,0,0,94.83,273.9Z"/><path class="cls-6" d="M106.44,269.85a3.55,3.55,0,0,1,2.8-1.28q3.21,0,3.25,3.67v6.56h-2.25v-6.48a2,2,0,0,0-.45-1.47,1.83,1.83,0,0,0-1.32-.43,2.18,2.18,0,0,0-2,1.2v7.18h-2.25V264.55h2.25Z"/><path class="cls-6" d="M118.07,266.32v2.44h1.77v1.67h-1.77V276a1.23,1.23,0,0,0,.23.83,1,1,0,0,0,.81.26,3.61,3.61,0,0,0,.79-.09v1.74a5.64,5.64,0,0,1-1.49.21c-1.73,0-2.59-1-2.59-2.87v-5.68h-1.65v-1.67h1.65v-2.44Z"/><path class="cls-6" d="M131.37,277.18a2,2,0,0,0,1.4-.49,1.66,1.66,0,0,0,.59-1.21h2.13a3.3,3.3,0,0,1-.59,1.74,3.8,3.8,0,0,1-1.48,1.29,4.51,4.51,0,0,1-2,.47,4.26,4.26,0,0,1-3.34-1.36,5.39,5.39,0,0,1-1.24-3.77v-.23a5.31,5.31,0,0,1,1.23-3.67,4.23,4.23,0,0,1,3.34-1.38,4.14,4.14,0,0,1,2.92,1.05,3.74,3.74,0,0,1,1.18,2.74h-2.13a2,2,0,0,0-.59-1.42,1.88,1.88,0,0,0-1.4-.56,2,2,0,0,0-1.69.8,3.94,3.94,0,0,0-.6,2.4v.36a4.06,4.06,0,0,0,.59,2.44A2,2,0,0,0,131.37,277.18Z"/><path class="cls-6" d="M143.66,278.8a3.71,3.71,0,0,1-.26-.94,3.48,3.48,0,0,1-2.63,1.12,3.57,3.57,0,0,1-2.47-.86,2.76,2.76,0,0,1-1-2.13,2.85,2.85,0,0,1,1.19-2.47,5.78,5.78,0,0,1,3.41-.86h1.38V272a1.58,1.58,0,0,0-1.76-1.72,2,2,0,0,0-1.26.38,1.21,1.21,0,0,0-.5,1h-2.25a2.46,2.46,0,0,1,.55-1.54A3.58,3.58,0,0,1,139.6,269a5.21,5.21,0,0,1,2.1-.41,4.23,4.23,0,0,1,2.81.89,3.12,3.12,0,0,1,1.07,2.49v4.53a5.2,5.2,0,0,0,.38,2.16v.16Zm-2.47-1.63a2.5,2.5,0,0,0,1.25-.32,2.2,2.2,0,0,0,.89-.87v-1.9h-1.22a3.32,3.32,0,0,0-1.88.44,1.41,1.41,0,0,0-.63,1.23,1.32,1.32,0,0,0,.43,1A1.71,1.71,0,0,0,141.19,277.17Z"/><path class="cls-6" d="M154.5,277.81a3.49,3.49,0,0,1-2.82,1.17,3.13,3.13,0,0,1-2.47-1,4.08,4.08,0,0,1-.84-2.77v-6.5h2.25v6.47q0,1.92,1.59,1.92a2.25,2.25,0,0,0,2.22-1.18v-7.21h2.25v10h-2.12Z"/><path class="cls-6" d="M165.08,276.07a1,1,0,0,0-.5-.92,5.26,5.26,0,0,0-1.64-.56A8.2,8.2,0,0,1,161,274a2.55,2.55,0,0,1-1.69-2.36,2.69,2.69,0,0,1,1.09-2.18,4.35,4.35,0,0,1,2.79-.87,4.48,4.48,0,0,1,2.9.89,2.84,2.84,0,0,1,1.11,2.31H165a1.4,1.4,0,0,0-.48-1.08,1.85,1.85,0,0,0-1.28-.43,2,2,0,0,0-1.21.35,1,1,0,0,0-.47.91.91.91,0,0,0,.43.81,5.9,5.9,0,0,0,1.77.58,8.63,8.63,0,0,1,2.08.7,2.84,2.84,0,0,1,1.12,1,2.4,2.4,0,0,1,.37,1.37,2.63,2.63,0,0,1-1.12,2.19,4.8,4.8,0,0,1-3,.84,5.33,5.33,0,0,1-2.2-.44,3.67,3.67,0,0,1-1.5-1.23,2.9,2.9,0,0,1-.54-1.68h2.19a1.6,1.6,0,0,0,.61,1.23,2.32,2.32,0,0,0,1.47.43,2.26,2.26,0,0,0,1.36-.34A1,1,0,0,0,165.08,276.07Z"/><path class="cls-6" d="M174.16,279a4.68,4.68,0,0,1-3.48-1.35,4.88,4.88,0,0,1-1.33-3.59v-.28a6,6,0,0,1,.58-2.69,4.43,4.43,0,0,1,1.63-1.84,4.31,4.31,0,0,1,2.34-.66,3.93,3.93,0,0,1,3.16,1.31,5.51,5.51,0,0,1,1.12,3.7v.91h-6.56a3.05,3.05,0,0,0,.83,2,2.51,2.51,0,0,0,1.83.72,3,3,0,0,0,2.53-1.25l1.21,1.16a4.06,4.06,0,0,1-1.61,1.4A5,5,0,0,1,174.16,279Zm-.27-8.6a1.91,1.91,0,0,0-1.5.65,3.41,3.41,0,0,0-.73,1.81H176v-.17a2.71,2.71,0,0,0-.6-1.71A1.9,1.9,0,0,0,173.89,270.38Z"/><path class="cls-6" d="M191.61,278.8a3.33,3.33,0,0,1-.26-.94,3.8,3.8,0,0,1-5.1.26,2.77,2.77,0,0,1-1-2.13,2.87,2.87,0,0,1,1.19-2.47,5.8,5.8,0,0,1,3.41-.86h1.38V272a1.76,1.76,0,0,0-.43-1.25,1.74,1.74,0,0,0-1.33-.47,2,2,0,0,0-1.26.38,1.2,1.2,0,0,0-.49,1h-2.25a2.51,2.51,0,0,1,.54-1.54,3.65,3.65,0,0,1,1.49-1.13,5.28,5.28,0,0,1,2.1-.41,4.21,4.21,0,0,1,2.81.89,3.16,3.16,0,0,1,1.08,2.49v4.53a5.2,5.2,0,0,0,.38,2.16v.16Zm-2.48-1.63a2.51,2.51,0,0,0,1.26-.32,2.17,2.17,0,0,0,.88-.87v-1.9h-1.21a3.32,3.32,0,0,0-1.88.44,1.41,1.41,0,0,0-.63,1.23,1.32,1.32,0,0,0,.43,1A1.7,1.7,0,0,0,189.13,277.17Z"/><path class="cls-6" d="M195.94,273.7A6,6,0,0,1,197,270a3.45,3.45,0,0,1,2.88-1.41,3.24,3.24,0,0,1,2.58,1.12v-5.14h2.26V278.8h-2l-.11-1a3.35,3.35,0,0,1-2.7,1.22,3.43,3.43,0,0,1-2.86-1.42A6.21,6.21,0,0,1,195.94,273.7Zm2.26.2a4.12,4.12,0,0,0,.59,2.39,1.91,1.91,0,0,0,1.67.86,2.13,2.13,0,0,0,2-1.24v-4.29a2.09,2.09,0,0,0-2-1.2,1.93,1.93,0,0,0-1.69.87A4.66,4.66,0,0,0,198.2,273.9Z"/><path class="cls-6" d="M211.11,275.94l2.12-7.18h2.33l-3.48,10h-2l-3.51-10H209Z"/><path class="cls-6" d="M221.74,279a4.68,4.68,0,0,1-3.48-1.35,4.93,4.93,0,0,1-1.33-3.59v-.28a6,6,0,0,1,.58-2.69,4.43,4.43,0,0,1,1.63-1.84,4.31,4.31,0,0,1,2.34-.66,4,4,0,0,1,3.17,1.31,5.56,5.56,0,0,1,1.11,3.7v.91H219.2a3.05,3.05,0,0,0,.83,2,2.52,2.52,0,0,0,1.84.72,3,3,0,0,0,2.52-1.25l1.22,1.16a4.21,4.21,0,0,1-1.61,1.4A5.09,5.09,0,0,1,221.74,279Zm-.27-8.6a1.91,1.91,0,0,0-1.5.65,3.41,3.41,0,0,0-.73,1.81h4.3v-.17a2.71,2.71,0,0,0-.61-1.71A1.9,1.9,0,0,0,221.47,270.38Z"/><path class="cls-6" d="M233.24,270.82a5.52,5.52,0,0,0-.92-.08,2.07,2.07,0,0,0-2.08,1.19v6.87H228v-10h2.15l.06,1.12a2.54,2.54,0,0,1,2.26-1.31,2.27,2.27,0,0,1,.8.13Z"/><path class="cls-6" d="M240.77,276.07a1,1,0,0,0-.5-.92,5.26,5.26,0,0,0-1.64-.56,8.2,8.2,0,0,1-1.92-.61,2.55,2.55,0,0,1-1.69-2.36,2.69,2.69,0,0,1,1.09-2.18,4.35,4.35,0,0,1,2.79-.87,4.52,4.52,0,0,1,2.9.89,2.84,2.84,0,0,1,1.11,2.31h-2.25a1.38,1.38,0,0,0-.49-1.08,1.81,1.81,0,0,0-1.27-.43,2,2,0,0,0-1.22.35,1.06,1.06,0,0,0-.46.91.91.91,0,0,0,.43.81,5.92,5.92,0,0,0,1.76.58,8.58,8.58,0,0,1,2.09.7,2.92,2.92,0,0,1,1.12,1A2.48,2.48,0,0,1,243,276a2.62,2.62,0,0,1-1.13,2.19,4.79,4.79,0,0,1-2.94.84,5.33,5.33,0,0,1-2.2-.44,3.67,3.67,0,0,1-1.5-1.23,2.9,2.9,0,0,1-.54-1.68h2.19a1.57,1.57,0,0,0,.61,1.23,2.32,2.32,0,0,0,1.47.43,2.28,2.28,0,0,0,1.36-.34A1.06,1.06,0,0,0,240.77,276.07Z"/><path class="cls-6" d="M249.84,279a4.66,4.66,0,0,1-3.47-1.35A4.88,4.88,0,0,1,245,274v-.28a6,6,0,0,1,.58-2.69,4.36,4.36,0,0,1,1.63-1.84,4.25,4.25,0,0,1,2.33-.66,3.94,3.94,0,0,1,3.17,1.31,5.51,5.51,0,0,1,1.12,3.7v.91h-6.56a3.05,3.05,0,0,0,.83,2,2.51,2.51,0,0,0,1.83.72,3,3,0,0,0,2.53-1.25l1.21,1.16a4.13,4.13,0,0,1-1.61,1.4A5,5,0,0,1,249.84,279Zm-.27-8.6a1.9,1.9,0,0,0-1.49.65,3.33,3.33,0,0,0-.73,1.81h4.29v-.17A2.77,2.77,0,0,0,251,271,1.9,1.9,0,0,0,249.57,270.38Z"/><path class="cls-6" d="M265.72,279a4.64,4.64,0,0,1-3.47-1.35,4.88,4.88,0,0,1-1.33-3.59v-.28a6,6,0,0,1,.58-2.69,4.4,4.4,0,0,1,1.62-1.84,4.31,4.31,0,0,1,2.34-.66,4,4,0,0,1,3.17,1.31,5.51,5.51,0,0,1,1.12,3.7v.91h-6.56a3,3,0,0,0,.83,2,2.5,2.5,0,0,0,1.83.72,3,3,0,0,0,2.52-1.25l1.22,1.16a4.13,4.13,0,0,1-1.61,1.4A5,5,0,0,1,265.72,279Zm-.27-8.6a1.91,1.91,0,0,0-1.5.65,3.33,3.33,0,0,0-.72,1.81h4.29v-.17a2.77,2.77,0,0,0-.6-1.71A1.9,1.9,0,0,0,265.45,270.38Z"/><path class="cls-6" d="M272.76,278.8v-8.37h-1.53v-1.67h1.53v-.92a3.46,3.46,0,0,1,.93-2.58,3.55,3.55,0,0,1,2.6-.91,5.21,5.21,0,0,1,1.26.17l-.05,1.76a4.51,4.51,0,0,0-.87-.07,1.45,1.45,0,0,0-1.61,1.66v.89h2v1.67h-2v8.37Z"/><path class="cls-6" d="M280,278.8v-8.37h-1.53v-1.67H280v-.92a3.49,3.49,0,0,1,.92-2.58,3.55,3.55,0,0,1,2.6-.91,5.21,5.21,0,0,1,1.26.17l-.05,1.76a4.51,4.51,0,0,0-.87-.07,1.45,1.45,0,0,0-1.61,1.66v.89h2v1.67h-2v8.37Z"/><path class="cls-6" d="M290.59,279a4.64,4.64,0,0,1-3.47-1.35,4.89,4.89,0,0,1-1.34-3.59v-.28a6.14,6.14,0,0,1,.58-2.69,4.43,4.43,0,0,1,1.63-1.84,4.31,4.31,0,0,1,2.34-.66,4,4,0,0,1,3.17,1.31,5.56,5.56,0,0,1,1.12,3.7v.91h-6.56a3,3,0,0,0,.83,2,2.48,2.48,0,0,0,1.83.72,3,3,0,0,0,2.52-1.25l1.22,1.16a4.13,4.13,0,0,1-1.61,1.4A5.06,5.06,0,0,1,290.59,279Zm-.27-8.6a1.91,1.91,0,0,0-1.5.65,3.41,3.41,0,0,0-.73,1.81h4.3v-.17a2.77,2.77,0,0,0-.6-1.71A1.92,1.92,0,0,0,290.32,270.38Z"/><path class="cls-6" d="M301,277.18a2,2,0,0,0,1.4-.49,1.67,1.67,0,0,0,.6-1.21h2.12a3.29,3.29,0,0,1-.58,1.74,3.83,3.83,0,0,1-1.49,1.29,4.45,4.45,0,0,1-2,.47,4.28,4.28,0,0,1-3.34-1.36,5.43,5.43,0,0,1-1.23-3.77v-.23a5.35,5.35,0,0,1,1.22-3.67,4.24,4.24,0,0,1,3.34-1.38,4.1,4.1,0,0,1,2.92,1.05,3.71,3.71,0,0,1,1.18,2.74H303a2.07,2.07,0,0,0-.59-1.42,1.91,1.91,0,0,0-1.41-.56,2,2,0,0,0-1.69.8,4.09,4.09,0,0,0-.6,2.4v.36a4.14,4.14,0,0,0,.59,2.44A2,2,0,0,0,301,277.18Z"/><path class="cls-6" d="M310.09,266.32v2.44h1.77v1.67h-1.77V276a1.23,1.23,0,0,0,.22.83,1,1,0,0,0,.81.26,3.55,3.55,0,0,0,.79-.09v1.74a5.62,5.62,0,0,1-1.48.21c-1.73,0-2.6-1-2.6-2.87v-5.68h-1.65v-1.67h1.65v-2.44Z"/><path class="cls-6" d="M319.68,276.07a1,1,0,0,0-.5-.92,5.26,5.26,0,0,0-1.64-.56,8.2,8.2,0,0,1-1.92-.61,2.55,2.55,0,0,1-1.69-2.36,2.69,2.69,0,0,1,1.09-2.18,4.35,4.35,0,0,1,2.79-.87,4.48,4.48,0,0,1,2.9.89,2.84,2.84,0,0,1,1.11,2.31h-2.25a1.4,1.4,0,0,0-.48-1.08,1.85,1.85,0,0,0-1.28-.43,2,2,0,0,0-1.21.35,1,1,0,0,0-.47.91.91.91,0,0,0,.43.81,5.9,5.9,0,0,0,1.77.58,8.63,8.63,0,0,1,2.08.7,2.84,2.84,0,0,1,1.12,1,2.48,2.48,0,0,1,.37,1.37,2.62,2.62,0,0,1-1.13,2.19,4.75,4.75,0,0,1-2.94.84,5.33,5.33,0,0,1-2.2-.44,3.67,3.67,0,0,1-1.5-1.23,2.9,2.9,0,0,1-.54-1.68h2.19a1.6,1.6,0,0,0,.61,1.23,2.32,2.32,0,0,0,1.47.43,2.28,2.28,0,0,0,1.36-.34A1.06,1.06,0,0,0,319.68,276.07Z"/><path class="cls-6" d="M29.19,301.6H26.94V287.35h2.25Z"/><path class="cls-6" d="M32.13,289a1.2,1.2,0,0,1,.33-.86,1.24,1.24,0,0,1,.94-.35,1.28,1.28,0,0,1,1,.35,1.2,1.2,0,0,1,.33.86,1.18,1.18,0,0,1-.33.85,1.27,1.27,0,0,1-1,.34,1.23,1.23,0,0,1-.94-.34A1.18,1.18,0,0,1,32.13,289Zm2.39,12.65H32.27v-10h2.25Z"/><path class="cls-6" d="M40.71,297.29l-1,1v3.28H37.46V287.35h2.25v8.22l.7-.89,2.78-3.12H45.9l-3.73,4.18,4.13,5.86H43.69Z"/><path class="cls-6" d="M52.08,301.78a4.68,4.68,0,0,1-3.48-1.35,4.93,4.93,0,0,1-1.33-3.59v-.28a6.14,6.14,0,0,1,.58-2.69A4.43,4.43,0,0,1,49.48,292a4.31,4.31,0,0,1,2.34-.66A4,4,0,0,1,55,292.68a5.56,5.56,0,0,1,1.11,3.7v.91H49.55a3,3,0,0,0,.83,2,2.48,2.48,0,0,0,1.83.72,3,3,0,0,0,2.52-1.25L56,299.89a4.21,4.21,0,0,1-1.61,1.4A5.06,5.06,0,0,1,52.08,301.78Zm-.27-8.6a1.91,1.91,0,0,0-1.5.65,3.41,3.41,0,0,0-.73,1.81h4.3v-.17a2.71,2.71,0,0,0-.61-1.71A1.9,1.9,0,0,0,51.81,293.18Z"/><path class="cls-6" d="M59.73,299.22a1.3,1.3,0,0,1,1,.36,1.22,1.22,0,0,1,.34.89,1.18,1.18,0,0,1-.34.88,1.52,1.52,0,0,1-1.93,0,1.18,1.18,0,0,1-.35-.89,1.22,1.22,0,0,1,.34-.89A1.27,1.27,0,0,1,59.73,299.22Z"/><path class="cls-6" d="M65.52,299.22a1.28,1.28,0,0,1,1,.36,1.22,1.22,0,0,1,.34.89,1.18,1.18,0,0,1-.34.88,1.31,1.31,0,0,1-1,.35,1.34,1.34,0,0,1-1-.34,1.18,1.18,0,0,1-.35-.89,1.22,1.22,0,0,1,.34-.89A1.28,1.28,0,0,1,65.52,299.22Z"/><path class="cls-6" d="M71.3,299.22a1.28,1.28,0,0,1,1,.36,1.22,1.22,0,0,1,.34.89,1.18,1.18,0,0,1-.34.88,1.31,1.31,0,0,1-1,.35,1.35,1.35,0,0,1-1-.34,1.32,1.32,0,0,1,0-1.78A1.28,1.28,0,0,1,71.3,299.22Z"/><rect class="cls-7" x="28.79" y="321.51" width="227.45" height="13.5"/><rect class="cls-7" x="28.79" y="343.68" width="171.82" height="13.5"/><rect class="cls-8" x="244.43" y="123.22" width="381.28" height="135.26" rx="23"/><path class="cls-6" d="M272.42,157.59h-2.34v-13.5h2.34Z"/><path class="cls-6" d="M289.58,154.49l1.6-6.93h2.2l-2.74,10h-1.85l-2.16-6.89-2.11,6.89h-1.86l-2.74-10h2.2l1.62,6.85,2.06-6.85h1.7Z"/><path class="cls-6" d="M294.94,152.48a5.94,5.94,0,0,1,.58-2.66,4.31,4.31,0,0,1,1.64-1.81,4.61,4.61,0,0,1,2.44-.64,4.38,4.38,0,0,1,3.29,1.31,5.13,5.13,0,0,1,1.37,3.47v.53a6,6,0,0,1-.57,2.65,4.21,4.21,0,0,1-1.63,1.81,4.65,4.65,0,0,1-2.46.64,4.34,4.34,0,0,1-3.4-1.42,5.41,5.41,0,0,1-1.27-3.77Zm2.25.2a4.07,4.07,0,0,0,.64,2.42,2.23,2.23,0,0,0,3.56,0,4.48,4.48,0,0,0,.64-2.61,4,4,0,0,0-.66-2.41,2.09,2.09,0,0,0-1.77-.89,2.06,2.06,0,0,0-1.76.88A4.38,4.38,0,0,0,297.19,152.68Z"/><path class="cls-6" d="M312.73,156.61a3.49,3.49,0,0,1-2.82,1.17,3.12,3.12,0,0,1-2.47-1,4,4,0,0,1-.84-2.76v-6.5h2.26V154c0,1.28.53,1.91,1.58,1.91a2.22,2.22,0,0,0,2.22-1.18v-7.2h2.25v10h-2.12Z"/><path class="cls-6" d="M320.08,157.59h-2.25V143.34h2.25Z"/><path class="cls-6" d="M322.59,152.5a5.92,5.92,0,0,1,1.08-3.72,3.43,3.43,0,0,1,2.88-1.41,3.27,3.27,0,0,1,2.58,1.11v-5.14h2.26v14.25h-2.05l-.11-1a3.33,3.33,0,0,1-2.7,1.22,3.43,3.43,0,0,1-2.85-1.42A6.17,6.17,0,0,1,322.59,152.5Zm2.26.2a4.17,4.17,0,0,0,.58,2.38,1.92,1.92,0,0,0,1.68.86,2.13,2.13,0,0,0,2-1.23v-4.29a2.09,2.09,0,0,0-2-1.2,1.93,1.93,0,0,0-1.69.86A4.64,4.64,0,0,0,324.85,152.7Z"/><path class="cls-6" d="M341.54,147.56l.06,1a3.63,3.63,0,0,1,2.9-1.23,2.76,2.76,0,0,1,2.75,1.54,3.56,3.56,0,0,1,3.08-1.54,3.15,3.15,0,0,1,2.48.92,4.08,4.08,0,0,1,.83,2.71v6.59h-2.26v-6.53a2.05,2.05,0,0,0-.41-1.4,2.26,2.26,0,0,0-2.64,0,2.15,2.15,0,0,0-.69,1.08v6.88H345.4V151a1.61,1.61,0,0,0-1.81-1.77,2,2,0,0,0-1.92,1.1v7.27h-2.26v-10Z"/><path class="cls-6" d="M356,152.48a5.94,5.94,0,0,1,.59-2.66,4.31,4.31,0,0,1,1.64-1.81,4.59,4.59,0,0,1,2.43-.64,4.38,4.38,0,0,1,3.3,1.31,5.17,5.17,0,0,1,1.37,3.47v.53a6,6,0,0,1-.57,2.65,4.24,4.24,0,0,1-1.64,1.81,4.59,4.59,0,0,1-2.45.64,4.33,4.33,0,0,1-3.4-1.42,5.42,5.42,0,0,1-1.28-3.77Zm2.26.2a4,4,0,0,0,.64,2.42,2.23,2.23,0,0,0,3.56,0,4.49,4.49,0,0,0,.63-2.61,4,4,0,0,0-.65-2.41,2.11,2.11,0,0,0-1.78-.89,2.06,2.06,0,0,0-1.75.88A4.38,4.38,0,0,0,358.26,152.68Z"/><path class="cls-6" d="M367.3,152.5a6,6,0,0,1,1.07-3.72,3.45,3.45,0,0,1,2.89-1.41,3.29,3.29,0,0,1,2.58,1.11v-5.14h2.25v14.25h-2l-.11-1a3.33,3.33,0,0,1-2.7,1.22,3.4,3.4,0,0,1-2.85-1.42A6.17,6.17,0,0,1,367.3,152.5Zm2.25.2a4.16,4.16,0,0,0,.59,2.38,1.89,1.89,0,0,0,1.67.86,2.14,2.14,0,0,0,2-1.23v-4.29a2.1,2.1,0,0,0-2-1.2,1.92,1.92,0,0,0-1.68.86A4.63,4.63,0,0,0,369.55,152.7Z"/><path class="cls-6" d="M378.92,145a1.18,1.18,0,0,1,.33-.86,1.45,1.45,0,0,1,1.89,0,1.27,1.27,0,0,1,0,1.71,1.48,1.48,0,0,1-1.89,0A1.18,1.18,0,0,1,378.92,145Zm2.4,12.64h-2.26v-10h2.26Z"/><path class="cls-6" d="M385,157.59v-8.36h-1.53v-1.67H385v-.92a3.43,3.43,0,0,1,.93-2.58,3.53,3.53,0,0,1,2.59-.91,5.36,5.36,0,0,1,1.27.17l-.06,1.76a4.34,4.34,0,0,0-.86-.08,1.46,1.46,0,0,0-1.62,1.67v.89h2v1.67h-2v8.36Z"/><path class="cls-6" d="M395,154.37l2-6.81h2.4l-4,11.56c-.61,1.68-1.65,2.53-3.11,2.53a4.15,4.15,0,0,1-1.09-.17v-1.75l.43,0a2.24,2.24,0,0,0,1.28-.31,2,2,0,0,0,.68-1l.33-.86-3.53-10h2.43Z"/><path class="cls-6" d="M409.21,145.12v2.44H411v1.67h-1.77v5.6a1.25,1.25,0,0,0,.23.83,1,1,0,0,0,.81.25,3.61,3.61,0,0,0,.79-.09v1.75a5.62,5.62,0,0,1-1.48.21c-1.74,0-2.6-1-2.6-2.87v-5.68h-1.65v-1.67H407v-2.44Z"/><path class="cls-6" d="M415.4,148.65a3.55,3.55,0,0,1,2.79-1.28q3.21,0,3.26,3.67v6.55H419.2v-6.47a2,2,0,0,0-.45-1.47,1.87,1.87,0,0,0-1.33-.43,2.18,2.18,0,0,0-2,1.2v7.17h-2.25V143.34h2.25Z"/><path class="cls-6" d="M424.21,145a1.18,1.18,0,0,1,.33-.86,1.24,1.24,0,0,1,.94-.35,1.28,1.28,0,0,1,.95.35,1.27,1.27,0,0,1,0,1.71,1.31,1.31,0,0,1-.95.34,1.27,1.27,0,0,1-.94-.34A1.18,1.18,0,0,1,424.21,145Zm2.39,12.64h-2.25v-10h2.25Z"/><path class="cls-6" d="M435.16,154.87a1,1,0,0,0-.5-.92,5.24,5.24,0,0,0-1.65-.56,8.52,8.52,0,0,1-1.92-.61,2.58,2.58,0,0,1-1.69-2.37,2.68,2.68,0,0,1,1.1-2.17,4.34,4.34,0,0,1,2.78-.87,4.53,4.53,0,0,1,2.91.89,2.84,2.84,0,0,1,1.11,2.31H435a1.4,1.4,0,0,0-.48-1.08,1.84,1.84,0,0,0-1.28-.43,2,2,0,0,0-1.21.34,1.1,1.1,0,0,0-.47.92.92.92,0,0,0,.44.81,6.23,6.23,0,0,0,1.76.58,8,8,0,0,1,2.08.69,3,3,0,0,1,1.13,1,2.53,2.53,0,0,1,.36,1.38,2.61,2.61,0,0,1-1.12,2.19,4.79,4.79,0,0,1-2.94.84,5.15,5.15,0,0,1-2.2-.45,3.57,3.57,0,0,1-1.5-1.22,2.9,2.9,0,0,1-.54-1.68h2.19a1.59,1.59,0,0,0,.6,1.23,2.35,2.35,0,0,0,1.48.43,2.24,2.24,0,0,0,1.35-.34A1,1,0,0,0,435.16,154.87Z"/><path class="cls-6" d="M444.6,152.5a5.91,5.91,0,0,1,1.07-3.72,3.45,3.45,0,0,1,2.89-1.41,3.29,3.29,0,0,1,2.58,1.11v-5.14h2.25v14.25h-2l-.11-1a3.35,3.35,0,0,1-2.7,1.22,3.4,3.4,0,0,1-2.85-1.42A6.17,6.17,0,0,1,444.6,152.5Zm2.25.2a4.16,4.16,0,0,0,.59,2.38,1.89,1.89,0,0,0,1.67.86,2.14,2.14,0,0,0,2-1.23v-4.29a2.11,2.11,0,0,0-2-1.2,2,2,0,0,0-1.69.86A4.72,4.72,0,0,0,446.85,152.7Z"/><path class="cls-6" d="M461.47,149.62a5.43,5.43,0,0,0-.92-.08,2.07,2.07,0,0,0-2.08,1.19v6.86h-2.26v-10h2.15l.06,1.12a2.54,2.54,0,0,1,2.26-1.31,2,2,0,0,1,.8.13Z"/><path class="cls-6" d="M462.62,152.48a5.94,5.94,0,0,1,.58-2.66,4.31,4.31,0,0,1,1.64-1.81,4.59,4.59,0,0,1,2.43-.64,4.38,4.38,0,0,1,3.3,1.31,5.13,5.13,0,0,1,1.37,3.47v.53a6,6,0,0,1-.57,2.65,4.28,4.28,0,0,1-1.63,1.81,4.65,4.65,0,0,1-2.46.64,4.34,4.34,0,0,1-3.4-1.42,5.41,5.41,0,0,1-1.27-3.77Zm2.25.2a4,4,0,0,0,.64,2.42,2.23,2.23,0,0,0,3.56,0,4.49,4.49,0,0,0,.63-2.61,4,4,0,0,0-.65-2.41,2.11,2.11,0,0,0-1.78-.89,2.06,2.06,0,0,0-1.75.88A4.38,4.38,0,0,0,464.87,152.68Z"/><path class="cls-6" d="M476.42,147.56l.07,1.16a3.59,3.59,0,0,1,2.92-1.35q3.13,0,3.19,3.59v6.63h-2.25v-6.5a2,2,0,0,0-.42-1.41,1.71,1.71,0,0,0-1.35-.46,2.18,2.18,0,0,0-2,1.23v7.14H474.3v-10Z"/><path class="cls-6" d="M489.79,157.78a4.66,4.66,0,0,1-3.47-1.35,4.89,4.89,0,0,1-1.33-3.6v-.27a6,6,0,0,1,.58-2.69A4.36,4.36,0,0,1,487.2,148a4.25,4.25,0,0,1,2.33-.66,3.94,3.94,0,0,1,3.17,1.31,5.49,5.49,0,0,1,1.12,3.7v.91h-6.56a3.08,3.08,0,0,0,.83,2,2.51,2.51,0,0,0,1.83.72,3.07,3.07,0,0,0,2.53-1.25l1.21,1.16a4,4,0,0,1-1.61,1.39A5,5,0,0,1,489.79,157.78Zm-.27-8.6a1.9,1.9,0,0,0-1.49.65,3.3,3.3,0,0,0-.73,1.81h4.29v-.17a2.77,2.77,0,0,0-.6-1.71A1.87,1.87,0,0,0,489.52,149.18Z"/><path class="cls-6" d="M510.06,152.68A6,6,0,0,1,509,156.4a3.39,3.39,0,0,1-2.87,1.38,3.25,3.25,0,0,1-2.74-1.27l-.12,1.08h-2V143.34h2.26v5.18a3.24,3.24,0,0,1,2.62-1.15,3.44,3.44,0,0,1,2.89,1.36,6.13,6.13,0,0,1,1.05,3.82Zm-2.26-.2a4.3,4.3,0,0,0-.57-2.45,1.93,1.93,0,0,0-1.67-.81,2.08,2.08,0,0,0-2.06,1.28v4.14a2.11,2.11,0,0,0,2.08,1.3,1.89,1.89,0,0,0,1.63-.79,4.12,4.12,0,0,0,.59-2.38Z"/><path class="cls-6" d="M515.83,154.37l2-6.81h2.4l-4,11.56c-.61,1.68-1.65,2.53-3.11,2.53a4.15,4.15,0,0,1-1.09-.17v-1.75l.43,0a2.21,2.21,0,0,0,1.28-.31,2.1,2.1,0,0,0,.69-1l.32-.86-3.53-10h2.44Z"/><path class="cls-6" d="M521.9,155.22a1.28,1.28,0,0,1,1,.36,1.23,1.23,0,0,1,.35.89,1.21,1.21,0,0,1-.35.88,1.31,1.31,0,0,1-1,.35,1.33,1.33,0,0,1-1-.35,1.19,1.19,0,0,1-.35-.88,1.2,1.2,0,0,1,1.31-1.25Z"/><path class="cls-6" d="M527.68,155.22a1.3,1.3,0,0,1,1,.36,1.26,1.26,0,0,1,.34.89,1.24,1.24,0,0,1-.34.88,1.33,1.33,0,0,1-1,.35,1.29,1.29,0,0,1-.95-.35,1.16,1.16,0,0,1-.36-.88,1.23,1.23,0,0,1,.35-.89A1.25,1.25,0,0,1,527.68,155.22Z"/><path class="cls-6" d="M533.46,155.22a1.3,1.3,0,0,1,1,.36,1.22,1.22,0,0,1,.34.89,1.2,1.2,0,0,1-.34.88,1.33,1.33,0,0,1-1,.35,1.29,1.29,0,0,1-1-.35,1.16,1.16,0,0,1-.36-.88,1.23,1.23,0,0,1,.35-.89A1.27,1.27,0,0,1,533.46,155.22Z"/><rect class="cls-7" x="268.57" y="177.35" width="227.45" height="13.5"/><rect class="cls-7" x="268.57" y="200.51" width="227.45" height="13.5"/><rect class="cls-7" x="268.57" y="222.68" width="171.82" height="13.5"/></g></g></svg>